<?xml version="1.0" encoding="UTF-8"?>
<svg width="1043px" height="556px" viewBox="0 0 1043 556" version="1.1" xmlns="http://www.w3.org/2000/svg" xmlns:xlink="http://www.w3.org/1999/xlink">
    <!-- Generator: Sketch 63.1 (92452) - https://sketch.com -->
    <title>Untitled</title>
    <desc>Created with Sketch.</desc>
    <g id="Page-1" stroke="none" stroke-width="1" fill="none" fill-rule="evenodd">
        <g id="undraw_docusaurus_react" fill-rule="nonzero">
            <g id="Group_23" transform="translate(0.989000, 0.965000)">
                <path d="M961.48,438.21 C960.32,440.71 959.163333,443.176667 958.01,445.61 C956.21,449.39 954.433333,453.096667 952.68,456.73 C951.9,458.34 951.12,459.92 950.36,461.5 C941.76,479.07 933.73,494.61 926.91,507.39 C914.305041,530.976508 889.841946,545.813082 863.1,546.09 L711.45,547.74 L709.85,547.74 L696.85,547.88 L685.73,548 L651.63,548.37 L650.25,548.37 L632.89,548.56 L632.36,548.56 L525.36,549.72 L429.85,550.72 L418.74,550.84 L349.74,551.59 L349.66,551.59 L304.91,552.07 L304.43,552.07 L162.93,553.6 L120.6,554.06 C116.995668,554.101177 113.392211,553.920837 109.81,553.52 L109.81,553.52 C108.59,553.38 107.37,553.22 106.16,553.03 C86.4179871,549.982541 68.3161264,540.262805 54.87,525.49 C36.66,505.46 23.41,482.09 14.51,456.73 C13.2233333,453.07 12.0233333,449.363333 10.91,445.61 C-19.9,341.46 17.66,207.09 85.26,117.17 C88.0933333,113.41 90.9733333,109.743333 93.9,106.17 L93.97,106.09 C114.76,80.57 138.07,59.25 162.9,44.09 C206.9,17.18 255.65,9.6 303.6,32.19 C344.17,51.31 382.05,60.3 418.77,62.74 C422.48,62.98 426.19,63.16 429.88,63.27 C514.11,65.92 593.05,35.57 685.75,15.98 C689.44,15.2 693.14,14.43 696.87,13.7 C763,0.54 836.36,-6.4 923.6,8.19 C932.663583,9.67065896 941.607254,11.8096536 950.36,14.59 C954.206667,15.83 957.913333,17.1633333 961.48,18.59 C1003.12,35.53 1025.83,66.83 1035.48,106.05 C1036.39333,109.69 1037.18333,113.393333 1037.85,117.16 C1054.96,211.5 1004.85,345.32 961.48,438.21 Z" id="Path_299" fill="#F2F2F2"></path>
                <path d="M497.02,445.61 C496.616905,449.350356 495.992477,453.063533 495.15,456.73 L588.85,456.73 L588.85,445.61 L497.02,445.61 Z M418.77,508.42 L429.88,508.33 L429.88,480.86 C426.07,480.69 422.36,480.52 418.77,480.34 L418.77,508.42 Z M185.85,445.61 L185.85,456.73 L384.35,456.73 L384.35,445.61 L185.85,445.61 Z M1035.53,106.09 L961.53,106.09 L961.53,18.6 C957.963333,17.1533333 954.256667,15.82 950.41,14.6 L950.41,106.09 L696.87,106.09 L696.87,13.67 C693.14,14.4 689.44,15.17 685.75,15.95 L685.75,106.09 L429.88,106.09 L429.88,63.24 C426.19,63.13 422.48,62.95 418.77,62.71 L418.77,106.09 L162.9,106.09 L162.9,44.09 C138.07,59.25 114.76,80.57 93.97,106.09 L93.9,106.09 L93.9,106.17 C90.9666667,109.77 88.0866667,113.436667 85.26,117.17 L93.9,117.17 L93.9,445.61 L10.9,445.61 C12.0066667,449.363333 13.2066667,453.07 14.5,456.73 L93.89,456.73 L93.89,550.35 C97.8844166,551.571668 101.961629,552.50408 106.09,553.14 C107.3,553.33 108.52,553.49 109.74,553.63 L109.74,553.63 C113.322211,554.030837 116.925668,554.211177 120.53,554.17 L162.86,553.71 L162.86,456.71 L418.77,456.71 L418.77,550.92 L429.88,550.8 L429.88,456.73 L685.75,456.73 L685.75,548.09 L696.87,547.97 L696.87,456.73 L950.36,456.73 L950.36,461.5 C951.12,459.92 951.9,458.34 952.68,456.73 C954.433333,453.096667 956.21,449.39 958.01,445.61 C959.163333,443.183333 960.32,440.716667 961.48,438.21 L961.48,117.21 L1037.9,117.21 C1037.22667,113.416667 1036.43667,109.71 1035.53,106.09 Z M162.9,445.61 L162.9,117.17 L418.77,117.17 L418.77,445.61 L162.9,445.61 Z M429.9,445.61 L429.9,117.17 L685.75,117.17 L685.75,445.61 L429.9,445.61 Z M950.38,445.61 L696.87,445.61 L696.87,117.17 L950.36,117.17 L950.38,445.61 Z" id="Path_300" fill="#000000" opacity="0.1"></path>
                <polygon id="Path_301" fill="#65617D" points="863.09 533.65 863.09 546.65 711.17 548.05 709.55 548.08 651.81 548.61 650.43 548.63 632.88 548.78 632.36 548.78 525.38 549.77 349.77 551.4 349.62 551.4 304.97 551.82 304.49 551.83 106.09 553.65 106.09 538.65 152.74 510.65 246.34 509.87 248.34 509.86 249 509.85 251 509.82 295.94 509.45 297.95 509.44 298.59 509.43 300.59 509.42 315 509.3 315.38 509.29 350.93 508.99 351.22 508.99 628.62 506.65 635.41 506.6 636.09 506.6 641.27 506.55 678.92 506.24 680.92 506.21 682.77 506.19 683.73 506.19 695.44 506.1 697.76 506.07 700.87 506.05 710.62 505.96 726.09 505.83 728.09 505.81 731.57 505.79 732.22 505.79 806.93 505.15"></polygon>
                <polygon id="Path_302" fill="#000000" opacity="0.2" points="863.09 533.65 863.09 546.65 711.17 548.05 709.55 548.08 651.81 548.61 650.43 548.63 632.88 548.78 632.36 548.78 525.38 549.77 349.77 551.4 349.62 551.4 304.97 551.82 304.49 551.83 106.09 553.65 106.09 538.65 152.74 510.65 246.34 509.87 248.34 509.86 249 509.85 251 509.82 295.94 509.45 297.95 509.44 298.59 509.43 300.59 509.42 315 509.3 315.38 509.29 350.93 508.99 351.22 508.99 628.62 506.65 635.41 506.6 636.09 506.6 641.27 506.55 678.92 506.24 680.92 506.21 682.77 506.19 683.73 506.19 695.44 506.1 697.76 506.07 700.87 506.05 710.62 505.96 726.09 505.83 728.09 505.81 731.57 505.79 732.22 505.79 806.93 505.15"></polygon>
                <path d="M296.100001,483.66 L296.100001,508.15 C296.101102,510.51762 294.73864,512.674202 292.6,513.69 C291.819809,514.068289 290.966897,514.272988 290.1,514.29 L255.2,515.03 C254.267938,515.052355 253.343491,514.857194 252.5,514.46 C250.322514,513.461953 248.927434,511.285316 248.929996,508.89 L248.929996,483.66 L296.100001,483.66 Z" id="Path_303" fill="#3F3D56"></path>
                <path d="M296.100001,483.66 L296.100001,508.15 C296.101102,510.51762 294.73864,512.674202 292.6,513.69 C291.819809,514.068289 290.966897,514.272988 290.1,514.29 L255.2,515.03 C254.267938,515.052355 253.343491,514.857194 252.5,514.46 C250.322514,513.461953 248.927434,511.285316 248.929996,508.89 L248.929996,483.66 L296.100001,483.66 Z" id="Path_304" fill="#000000" opacity="0.1"></path>
                <path d="M298.100001,483.66 L298.100001,508.15 C298.101102,510.51762 296.73864,512.674202 294.6,513.69 C293.819809,514.068289 292.966897,514.272988 292.1,514.29 L257.2,515.03 C256.267938,515.052355 255.343491,514.857194 254.5,514.46 C252.322514,513.461953 250.927434,511.285316 250.929996,508.89 L250.929996,483.66 L298.100001,483.66 Z" id="Path_305" fill="#3F3D56"></path>
                <rect id="Rectangle_137" fill="#3F3D56" x="680.92" y="483.65" width="47.17" height="31.5"></rect>
                <rect id="Rectangle_138" fill="#000000" opacity="0.1" x="680.92" y="483.65" width="47.17" height="31.5"></rect>
                <rect id="Rectangle_139" fill="#3F3D56" x="678.92" y="483.65" width="47.17" height="31.5"></rect>
                <polygon id="Path_306" fill="#000000" opacity="0.1" points="298.09 483.65 298.09 488.62 250.92 489.88 250.92 483.65"></polygon>
                <path d="M381.35,312.36 L381.35,480.56 C381.324837,482.692461 379.631115,484.430176 377.5,484.51 L185.85,489.61 L185.8,489.61 C183.629742,489.583037 181.876963,487.830258 181.85,485.66 L181.85,312.36 C181.876963,310.189742 183.629742,308.436963 185.8,308.41 L377.4,308.41 C379.570258,308.436963 381.323037,310.189742 381.35,312.36 Z" id="Path_307" fill="#65617D"></path>
                <path d="M185.85,308.41 L185.85,489.61 L185.8,489.61 C183.629742,489.583037 181.876963,487.830258 181.85,485.66 L181.85,312.36 C181.876963,310.189742 183.629742,308.436963 185.8,308.41 L185.85,308.41 Z" id="Path_308" fill="#000000" opacity="0.1"></path>
                <polygon id="Path_309" fill="#39374D" points="194.59 319.15 372.09 319.15 372.09 467.4 194.59 471.4"></polygon>
                <polygon id="Path_310" fill="#000000" opacity="0.1" points="726.09 483.65 726.09 490.06 678.92 488.8 678.92 483.65"></polygon>
                <path d="M788.35,312.36 L788.35,485.66 C788.322628,487.849588 786.539759,489.61 784.35,489.61 L784.35,489.61 L592.66,484.51 C590.528885,484.430176 588.835163,482.692461 588.81,480.56 L588.81,312.36 C588.836963,310.189742 590.589742,308.436963 592.76,308.41 L784.36,308.41 C786.545863,308.415294 788.322683,310.174301 788.35,312.36 Z" id="Path_311" fill="#65617D"></path>
                <path d="M788.35,312.36 L788.35,485.66 C788.322628,487.849588 786.539759,489.61 784.35,489.61 L784.35,489.61 L784.35,308.41 L784.35,308.41 C786.539759,308.41 788.322628,310.170412 788.35,312.36 Z" id="Path_312" fill="#000000" opacity="0.1"></path>
                <polygon id="Path_313" fill="#39374D" points="775.59 319.15 598.09 319.15 598.09 467.4 775.59 471.4"></polygon>
                <path d="M583.85,312.36 L583.85,480.56 C583.824837,482.692461 582.131115,484.430176 580,484.51 L388.35,489.61 L388.35,489.61 C386.160241,489.61 384.377372,487.849588 384.35,485.66 L384.35,312.36 C384.376963,310.189742 386.129742,308.436963 388.3,308.41 L579.9,308.41 C582.070258,308.436963 583.823037,310.189742 583.85,312.36 Z" id="Path_314" fill="#65617D"></path>
                <polygon id="Path_315" fill="#4267B2" points="397.09 319.15 574.59 319.15 574.59 467.4 397.09 471.4"></polygon>
                <polygon id="Path_316" fill="#000000" opacity="0.1" points="863.09 533.65 863.09 546.65 711.17 548.05 709.55 548.08 651.81 548.61 650.43 548.63 632.88 548.78 632.36 548.78 525.38 549.77 349.77 551.4 349.62 551.4 304.97 551.82 304.49 551.83 106.09 553.65 106.09 538.65 308.6 537.32 309.08 537.32 350.07 537.04 350.26 537.04 633.34 535.17 633.63 535.17 633.8 535.16 634.27 535.16 639.06 535.13 640.52 535.13 715.01 534.63 719.41 534.61 720.39 534.6"></polygon>
                <circle id="Ellipse_111" fill="#FBBEBE" cx="487.26" cy="298.15" r="51.33"></circle>
                <path d="M538.6,377.16 C538.6,377.16 439.1,389.16 448.6,377.16 C452.04,372.82 452.99,359.96 452.8,345.31 C452.74,340.86 452.58,336.25 452.35,331.66 C451.25,309.66 448.6,288.16 448.6,288.16 C448.6,288.16 535.6,247.16 525.6,279.66 C521.6,292.79 522.91,311.23 525.95,328.54 C526.84,333.59 527.87,338.54 528.95,343.24 C531.585725,354.703933 534.806607,366.025416 538.6,377.16 L538.6,377.16 Z" id="Path_317" fill="#FBBEBE"></path>
                <path d="M506.13,373.09 C517.64,370.96 529.83,367.09 540.66,371.55 C543.51,372.72 546.13,374.43 549.05,375.41 C551.97,376.39 555.17,376.63 558.21,377.32 C568.89,379.74 577.55,387.87 583.11,397.32 C588.67,406.77 591.55,417.46 594.37,428.04 L601.27,453.87 C607.27,476.32 613.27,498.96 614.66,522.17 C531.126627,526.951532 447.402459,527.428831 363.82,523.6 C369.26,513.26 374.82,502.29 374.36,490.6 C373.9,478.91 367.17,467.38 369.6,455.86 C371.15,448.52 376.17,442.47 379.24,435.64 C387.99,416.12 381.18,389.85 396.56,374.99 C403.48,368.31 413.56,365.78 423.19,366.1 C435.47,366.51 448.04,370.34 460.19,372.21 C475.75,374.57 490.45,375.97 506.13,373.09 Z" id="Path_318" fill="#FF6584"></path>
                <path d="M637.03,484.26 L636.93,485.69 L636.93,485.79 L636.76,488.09 L635.43,506.6 L633.82,528.9 L633.36,535.18 L632.36,548.62 L632.36,548.79 L525.36,549.79 L349.77,551.69 L349.77,552.53 L349.63,552.53 L349.63,551.41 L350.08,537.05 L350.94,508.99 L351.68,485.2 L351.75,482.83 C351.838419,479.939025 353.112088,477.211696 355.272064,475.288144 C357.432041,473.364592 360.288138,472.414188 363.17,472.66 C367.89,473.06 374.02,473.55 381.35,474.07 L384.35,474.29 C426.68,477.23 504.91,481.03 583.85,476.29 C585.51,476.2 587.18,476.1 588.85,475.98 C601.09,475.21 613.32,474.22 625.43,472.98 C628.529024,472.655301 631.612718,473.719818 633.851469,475.88716 C636.09022,478.054503 637.254104,481.102082 637.03,484.21 L637.03,484.26 Z" id="Path_319" fill="#000000" opacity="0.1"></path>
                <path d="M349.74,552.53 L349.74,551.69 L525.36,549.78 L632.36,548.78 L632.66,548.78 L632.66,548.61 L633.66,535.17 L634.09,529.17 L635.73,506.56 L637.02,488.66 L637.02,488.22 C637.079653,487.395192 637.042736,486.56624 636.91,485.75 C636.915595,485.716901 636.915595,485.683099 636.91,485.65 C636.635253,483.962337 635.948278,482.368555 634.91,481.01 C632.671435,478.139413 629.110065,476.627154 625.49,477.01 C613.38,478.25 601.15,479.24 588.91,480.01 C587.24,480.13 585.57,480.23 583.91,480.32 C504.97,485.01 426.74,481.21 384.41,478.32 L381.41,478.1 C374.08,477.58 367.95,477.1 363.23,476.69 C357.851994,476.236187 353.000129,479.918252 351.99,485.22 C351.889031,485.76139 351.828861,486.309598 351.81,486.86 L351.13,509.02 L350.2,537.09 L349.76,551.45 L349.76,552.57 L349.74,552.53 Z" id="Path_320" fill="#3F3D56"></path>
                <path d="M637.33,491.27 L636.1,506.6 L634.27,529.45 L633.81,535.17 L632.81,547.98 L632.75,548.62 L632.75,548.79 L632.75,548.79 L632.6,550.27 L632.71,548.79 L632.42,548.79 L525.42,549.79 L349.77,551.69 L349.77,551.41 L350.26,537.05 L351.26,508.99 L351.9,490.34 C351.963941,488.184384 353.115877,486.208024 354.96,485.09 C356.092371,484.395996 357.41638,484.080756 358.74,484.19 C360.84,484.36 363.42,484.56 366.43,484.78 C371.32,485.14 377.35,485.56 384.37,486 C397.37,486.82 413.68,487.7 432.37,488.42 C484.37,490.42 554.57,491.09 621.25,485.25 C624.25,484.99 627.35,484.7 630.38,484.41 C631.579349,484.290393 632.787727,484.519569 633.86,485.07 C634.163728,485.22128 634.451789,485.402156 634.72,485.61 C635.590527,486.240774 636.280186,487.089053 636.72,488.07 C636.822,488.265173 636.905692,488.46938 636.97,488.68 C637.270431,489.508503 637.39309,490.390969 637.33,491.27 L637.33,491.27 Z" id="Path_321" fill="#000000" opacity="0.1"></path>
                <path d="M298.100001,504.96 L298.100001,508.15 C298.101102,510.51762 296.73864,512.674202 294.6,513.69 L254.5,514.46 C252.322514,513.461953 250.927434,511.285316 250.929996,508.89 L250.929996,505.89 L298.100001,504.96 Z" id="Path_322" fill="#000000" opacity="0.1"></path>
                <polygon id="Path_323" fill="#3F3D56" points="298.59 515.57 246.34 516.57 246.34 507.9 298.59 506.9"></polygon>
                <polygon id="Path_324" fill="#000000" opacity="0.1" points="298.59 515.57 246.34 516.57 246.34 507.9 298.59 506.9"></polygon>
                <polygon id="Path_325" fill="#3F3D56" points="300.59 515.57 248.34 516.57 248.34 507.9 300.59 506.9"></polygon>
                <path d="M679.219999,506.96 L679.219999,510.15 C679.218898,512.51762 680.58136,514.674202 682.719999,515.69 L722.82,516.46 C724.997486,515.461953 726.392566,513.285316 726.390004,510.89 L726.390004,507.89 L679.219999,506.96 Z" id="Path_326" fill="#000000" opacity="0.1"></path>
                <polygon id="Path_327" fill="#000000" opacity="0.1" points="678.72 517.57 730.97 518.57 730.97 509.9 678.72 508.9"></polygon>
                <polygon id="Path_328" fill="#3F3D56" points="676.72 517.57 728.97 518.57 728.97 509.9 676.72 508.9"></polygon>
                <path d="M454.79,313.88 C454.87,320.88 451.63,327.48 448.88,333.95 C438.867478,357.518251 434.531015,383.108868 436.22,408.66 C436.95,419.66 438.8,430.66 436.95,441.56 C435.1,452.46 428.52,463.33 417.95,466.46 C435.48,476.91 459.21,475.81 475.71,463.8 C484.5,457.4 491.05,448.47 497.46,439.69 C496.698674,455.462039 492.132055,470.815624 484.15,484.44 C513.328116,481.85655 540.042458,467.022113 557.66,443.62 C561.97,437.81 565.72,431.43 567.38,424.39 C570.47,411.39 566.16,397.88 562.87,384.89 C560.120681,374.030857 558.059913,363.00892 556.7,351.89 C556.27,348.33 555.92,344.67 556.8,341.19 C557.8,337.12 560.47,333.68 562.44,329.97 C568.04,319.43 568.17,306.67 565.3,295.09 C562.43,283.51 556.81,272.83 551.24,262.28 C546.78,253.82 541.94,244.97 533.78,240 C528.68,236.9 522.78,235.61 516.9,234.36 L491.53,228.93 C485.98,227.74 480.27,226.55 474.66,227.42 C465.19,228.9 458.52,235.74 452.66,242.76 C448.07,248.22 436.85,258.47 436.06,265.62 C435.34,272.21 441.16,283.25 442.15,290.2 C443.45,299.2 444.37,296.2 449.45,301.72 C452.66,305.14 454.73,309.09 454.79,313.88 Z" id="Path_329" fill="#3F3D56"></path>
            </g>
        </g>
        <g id="Group" transform="translate(225.000000, 335.000000)">
            <rect id="Rectangle" fill="#F4136B" transform="translate(33.000000, 58.097980) rotate(45.000000) translate(-33.000000, -58.097980) " x="20" y="24.5979797" width="26" height="67" rx="12"></rect>
            <ellipse id="Oval" fill="#FEA621" transform="translate(72.597980, 18.500000) rotate(45.000000) translate(-72.597980, -18.500000) " cx="72.5979797" cy="18.5" rx="13" ry="12.5"></ellipse>
            <rect id="Rectangle" fill="#00A0C6" transform="translate(84.618795, 60.219300) rotate(225.000000) translate(-84.618795, -60.219300) " x="71.618795" y="26.7193001" width="26" height="67" rx="12"></rect>
            <ellipse id="Oval" fill="#80C41C" transform="translate(45.020815, 99.817280) rotate(225.000000) translate(-45.020815, -99.817280) " cx="45.0208153" cy="99.8172798" rx="13" ry="12.5"></ellipse>
        </g>
        <g id="Group-2" transform="translate(680.000000, 335.000000)" fill="#F1F1F1" fill-rule="nonzero">
            <path d="M0.40415689,3.58347996 C5.69937265,28.5366873 7.20684401,54.0634472 4.88207306,79.4102547 C4.27090894,86.0098616 3.39798163,92.5817008 2.26329114,99.1257723 C1.7456529,102.100833 1.15615493,105.061892 0.550421013,108.022127 C0.203338388,109.718321 -0.524828705,111.830097 0.615559988,113.426649 C2.83683415,116.536444 10.4488366,115.724874 13.8031542,115.826369 C20.781361,116.037522 27.7696607,116.07306 34.7503654,116.187002 L55.7514987,116.529801 L65.8631517,116.694852 C69.3083829,116.751064 73.081838,117.250519 76.4998896,116.838383 C80.9983427,116.295973 79.9024858,111.889929 79.8343806,108.61647 C79.6997471,102.145002 79.5152712,95.674666 79.280953,89.2054612 C78.3529119,63.5691028 76.6444547,37.9713507 74.1555812,12.4122048 C73.8379809,9.15146989 74.0363952,5.25031222 73.0971217,2.09748248 C72.7173954,0.822856783 72.3396362,0.45431037 70.8596662,0.225374161 C67.4691299,-0.299113143 63.4286869,0.253166258 59.9983178,0.275490458 L48.5279103,0.350142935 L1.88158221,0.653731619 C1.25071225,0.674173435 0.7505833,1.15840099 0.7505833,1.74877088 C0.7505833,2.33914077 1.25071225,2.82336833 1.88158221,2.84381014 L40.1162792,2.59496612 L56.9395414,2.48546219 L66.1158706,2.42573875 C68.001841,2.41346701 69.7645586,1.87937986 70.947356,3.82008874 C71.6957712,5.04806577 71.3891145,8.11879677 71.5315616,9.54758939 C73.816169,32.4622058 75.4733451,55.4214657 76.5030899,78.4253691 C76.7603726,84.1738434 76.978356,89.9236974 77.15704,95.6749312 C77.2314912,98.0712129 77.2991124,100.46767 77.3599036,102.864302 C77.3963825,104.302269 77.4303999,105.740294 77.4619559,107.178377 C77.4945059,108.661644 78.1508913,111.568484 77.5750691,112.930903 C76.3470999,115.83632 70.8733653,114.586544 68.1966413,114.542852 L58.8628077,114.390495 L40.1951406,114.08579 L21.5274657,113.781077 C18.4407058,113.730705 15.3509249,113.708673 12.2661866,113.585671 C11.2429076,113.54487 10.2182626,113.498987 9.19641196,113.430905 C6.15358273,113.228272 2.87798606,113.90086 2.51620521,109.967953 C2.29296079,107.540733 3.71221767,104.193731 4.15550615,101.765773 C4.65611485,99.0239847 5.11084916,96.2753534 5.51970908,93.5198794 C6.2845736,88.3719149 6.89401265,83.2067363 7.34802623,78.0243438 C9.49188519,52.9341991 7.91501518,27.6873025 2.66223516,3.00124029 C2.37005817,1.61984826 0.112518499,2.20460652 0.40415689,3.58345076 L0.40415689,3.58347996 Z" id="Path"></path>
            <path d="M11.1468916,9 L26.8531084,9 C27.4928433,8.98133234 28,8.53913125 28,8 C28,7.46086875 27.4928433,7.01866766 26.8531084,7 L11.1468916,7 C10.5071567,7.01866766 10,7.46086875 10,8 C10,8.53913125 10.5071567,8.98133234 11.1468916,9 L11.1468916,9 Z" id="Path"></path>
            <path d="M11.1389201,13.9989372 L25.8610858,13.4271818 C27.3759047,13.3683565 27.3833668,10.9419464 25.8610858,11.0010628 L11.1389201,11.5728182 C9.6240933,11.6316435 9.61663121,14.0580536 11.1389201,13.9989372 Z" id="Path"></path>
            <path d="M11.1018693,18 L24.8981307,18 C25.5127522,17.9813323 26,17.5391313 26,17 C26,16.4608687 25.5127522,16.0186677 24.8981307,16 L11.1018693,16 C10.4872478,16.0186677 10,16.4608687 10,17 C10,17.5391313 10.4872478,17.9813323 11.1018693,18 L11.1018693,18 Z" id="Path"></path>
            <path d="M57.3872361,8.47676779 C54.3305118,6.90052942 51.555997,9.49250041 51.1255175,12.4538267 C50.9150297,13.9018401 50.8695299,15.8809367 51.8029837,17.1109735 C52.7562859,18.3671391 54.5899451,18.8938452 56.1125606,18.9866978 C59.019656,19.164005 62.1127515,17.561445 62.8279402,14.6194741 C63.5260438,11.9143006 62.0439943,9.12498001 59.3942537,8.15703625 C58.0219801,7.6870981 57.4323004,9.83629825 58.795558,10.3031502 C60.0937769,10.8365049 60.8791495,12.1534799 60.7223937,13.5342208 C60.5386183,15.1226467 59.3092624,16.3969885 57.712543,16.654211 C55.853818,17.0767139 53.6754164,16.6232824 53.3160129,14.5510736 C53.0471433,13.0008452 53.8990264,9.18592966 56.2505612,10.3985326 C57.5340498,11.0603853 58.6740203,9.14031943 57.3872361,8.47678263 L57.3872361,8.47676779 Z" id="Path"></path>
            <path d="M14.1234572,30.7121213 C31.0458167,30.8817734 47.9507776,30.3836344 64.8383398,29.2177043 L63.716868,27.8140936 C60.9525295,34.4922513 61.0286604,41.5308995 61.3950798,48.595487 C61.4868804,50.3654723 62.0692639,52.752326 61.6925634,54.5054422 C61.2188288,56.7101287 59.143026,56.1830614 57.0785974,56.2467086 C52.5314272,56.3869051 47.9831921,56.4876467 43.4338923,56.5489333 C39.1375559,56.6068146 34.8408964,56.6296197 30.5439139,56.6173486 C28.5219173,56.6113067 26.499962,56.5976211 24.4780481,56.576292 C22.1037304,56.5510623 19.4048618,57.2083885 18.7917283,54.5862986 C18.398986,52.9067205 18.7944497,50.6975617 18.7956593,48.9702666 L18.8000865,42.6522297 L18.8089331,30.0161485 C18.7872224,29.4186981 18.272936,28.9450628 17.6459185,28.9450628 C17.0189009,28.9450628 16.5046146,29.4186981 16.4829038,30.0161485 L16.472049,45.460242 L16.4671333,52.4802838 C16.4661564,53.8746838 16.1622994,55.5593182 16.7083736,56.8831073 C17.9644914,59.9282038 23.3924204,58.7857539 25.9944409,58.8085886 C31.3019953,58.8551598 36.6096711,58.8474792 41.9174685,58.785547 C47.2248833,58.72428 52.5311997,58.6094266 57.8364177,58.4409868 C60.1218501,58.3684984 63.2844824,58.8641192 63.9777244,56.176704 C64.4637483,54.292575 63.8970887,51.8359754 63.7934021,49.9133402 C63.6750615,47.7192468 63.5479362,45.5246581 63.5170543,43.3274303 C63.4449474,38.196596 63.9722583,33.2050907 65.9597728,28.4036107 C66.0540211,28.0700523 65.9806129,27.7136798 65.7610506,27.4388802 C65.5414884,27.1640807 65.2006236,27.0019578 64.838301,27 C47.9592263,28.1656837 31.0542654,28.6638228 14.1234184,28.4944171 C13.4967769,28.5151164 13,29.0054455 13,29.6032544 C13,30.2010633 13.4967769,30.6913924 14.1234184,30.7120917 L14.1234572,30.7121213 Z" id="Path"></path>
            <path d="M18.8037808,31.1980985 C26.1256389,33.6312501 33.264154,36.5259128 40.1706056,39.8623306 C46.3669884,42.8692855 54.4789531,46.1539679 58.7433193,51.5282264 C59.6370449,52.6545687 61.6789158,51.5550359 60.7734814,50.4139311 C56.4188774,44.9259367 48.922166,41.6967939 42.6250358,38.5775676 C35.1450141,34.8914173 27.3930501,31.7138139 19.428815,29.0692171 C18.0007476,28.5917398 17.3861291,30.7241094 18.8037808,31.1980985 L18.8037808,31.1980985 Z" id="Path"></path>
            <path d="M64.2308764,28.0990639 C56.6093373,31.1975059 50.1523318,37.1672217 43.3412905,41.5905707 C35.9689087,46.3785317 28.3771269,50.8343761 20.565945,54.9581039 C19.2698712,55.6461642 20.4314835,57.5407784 21.7300174,56.8514098 C29.5245935,52.7134394 37.1163753,48.257595 44.5053629,43.4838767 C51.3150281,39.0613682 57.7753086,33.0900151 65.3949488,29.9923333 C66.7555472,29.4392027 65.5818957,27.5497851 64.2308841,28.0990274 L64.2308764,28.0990639 Z" id="Path"></path>
            <path d="M14.1234572,74.7120886 C31.0458167,74.8817409 47.9507776,74.3836014 64.8383398,73.2176699 L63.716868,71.8140576 C60.9525295,78.492223 61.0286604,85.5308793 61.3950798,92.595475 C61.4868804,94.3654623 62.0692639,96.7523188 61.6925634,98.505437 C61.2188288,100.710126 59.143026,100.183058 57.0785974,100.246705 C52.5314272,100.386902 47.9831921,100.487644 43.4338923,100.54893 C39.1375559,100.606812 34.8408964,100.629617 30.5439139,100.617346 C28.5219173,100.611309 26.499962,100.597623 24.4780481,100.576289 C22.1037304,100.551059 19.4048618,101.208386 18.7917283,98.5862935 C18.398986,96.9067135 18.7944497,94.6975521 18.7956593,92.970255 L18.8000865,86.6522108 L18.8089331,74.016115 C18.7872224,73.4186639 18.272936,72.9450281 17.6459185,72.9450281 C17.0189009,72.9450281 16.5046146,73.4186639 16.4829038,74.016115 L16.472049,89.4602264 L16.4671333,96.4802763 C16.4661564,97.8746778 16.1622994,99.5593142 16.7083736,100.883105 C17.9644914,103.928205 23.3924204,102.785754 25.9944409,102.808588 C31.3019953,102.85516 36.6096711,102.847479 41.9174685,102.785547 C47.2248833,102.72428 52.5311997,102.609426 57.8364177,102.440986 C60.1218501,102.368498 63.2844824,102.864119 63.9777244,100.176738 C64.4637483,98.2926065 63.8970887,95.8360041 63.7934021,93.9133666 C63.6750615,91.7192707 63.5479362,89.5246795 63.5170543,87.3274492 C63.4449474,82.1966089 63.9722583,77.2050979 65.9597728,72.4036123 C66.0540211,72.0700535 65.9806129,71.7136806 65.7610506,71.4388807 C65.5414884,71.1640809 65.2006236,71.0019578 64.838301,71 C47.9592263,72.1656851 31.0542654,72.6638247 14.1234184,72.4944188 C13.4967769,72.5151182 13,73.0054478 13,73.6032574 C13,74.201067 13.4967769,74.6913966 14.1234184,74.712096 L14.1234572,74.7120886 Z" id="Path"></path>
            <path d="M18.8037808,75.1980985 C26.1256389,77.6312501 33.264154,80.5259128 40.1706056,83.8623306 C46.3669884,86.8692855 54.4789531,90.1539679 58.7433193,95.5282264 C59.6370449,96.6545687 61.6789158,95.5550359 60.7734814,94.4139311 C56.4188774,88.9259367 48.922166,85.6967939 42.6250358,82.5775676 C35.1450141,78.8914173 27.3930501,75.7138139 19.428815,73.0692171 C18.0007476,72.5917398 17.3861291,74.7241094 18.8037808,75.1980985 Z" id="Path"></path>
            <path d="M64.2308764,72.0990275 C56.6093373,75.1974734 50.1523318,81.1671967 43.3412905,85.5905513 C35.9689087,90.3785184 28.3771269,94.8343684 20.565945,98.9581013 C19.2698712,99.6461625 20.4314835,101.540779 21.7300174,100.85141 C29.5245935,96.7134292 37.1163753,92.2575792 44.5053629,87.4838596 C51.3150281,83.0613456 57.7753086,77.089985 65.3949488,73.9923358 C66.7555472,73.4392046 65.5818957,71.5497846 64.2308841,72.0990275 L64.2308764,72.0990275 Z" id="Path"></path>
        </g>
    </g>
</svg>