<?xml version="1.0" encoding="UTF-8"?>
<svg width="1088px" height="688px" viewBox="0 0 1088 688" version="1.1" xmlns="http://www.w3.org/2000/svg" xmlns:xlink="http://www.w3.org/1999/xlink">
    <!-- Generator: Sketch 63.1 (92452) - https://sketch.com -->
    <title>Untitled</title>
    <desc>Created with Sketch.</desc>
    <g id="Page-1" stroke="none" stroke-width="1" fill="none" fill-rule="evenodd">
        <g id="undraw_into_the_night_vumi" fill-rule="nonzero">
            <path d="M961.81006,454.44234 C956.54006,499.59234 945.59006,535.84234 930.56006,564.75234 C910.56,603.27234 876.34998,618.79234 845.78998,635.03234 C836.959185,639.716461 827.778307,643.708438 818.32998,646.97234 C762.71998,666.27234 700.47998,661.15234 651.58998,650.96234 C617.299405,643.809089 582.49188,639.408406 547.49998,637.80234 C537.51998,637.352387 527.52998,637.129053 517.52998,637.13234 C502.10998,637.15234 224.45998,642.42234 156.85998,505.56234 C140.16998,471.80234 128.72998,430.56234 124.61998,380.29234 C112.98998,238.17234 176.90998,144.83234 259.35998,83.82234 C415.32998,-31.58766 629.11998,-26.74766 782.78998,91.70234 C885.15,170.60237 980.99,290.01234 961.81006,454.44234 Z" id="Path" fill="#3F3D56"></path>
            <path d="M930.56006,564.75233 C910.56,603.27233 883.34998,628.79233 852.78998,645.03233 C843.959185,649.716451 834.778307,653.708428 825.32998,656.97233 C769.71998,676.27233 707.47998,671.15233 658.58998,660.96233 C624.299405,653.809079 589.49188,649.408396 554.49998,647.80233 C544.51998,647.352377 534.52998,647.129043 524.52998,647.13233 C509.10994,647.15233 493.693273,647.725663 478.27998,648.85233 C378.10998,656.21233 224.45998,642.42233 156.85998,505.56233 L325.99998,177.96233 L388.94998,339.58233 L409.03998,391.17233 L464.40998,315.19233 L492.99998,275.96233 L623.19998,425.23233 L660,343.96236 L914.78,551.88236 L928.99,563.47236 L930.56006,564.75233 Z" id="Path" fill="#F2F2F2"></path>
            <polygon id="Path" fill="#000000" opacity="0.1" points="302 282.962 328 225.962 364 308.962 333 248.962"></polygon>
            <path d="M554.5,647.80232 C544.52,647.352367 534.53,647.129033 524.53,647.13232 L409.04,391.17232 L554.5,647.80232 Z" id="Path" fill="#000000" opacity="0.1"></path>
            <polygon id="Path" fill="#000000" opacity="0.1" points="464.411 315.191 493 292.962 623 442.962 491 314.962"></polygon>
            <path d="M852.79,645.03236 C843.959205,649.716481 834.778327,653.708458 825.33,656.97236 L623.2,425.23231 L852.79,645.03236 Z" id="Path" fill="#000000" opacity="0.1"></path>
            <circle id="Oval" fill="#F2F2F2" cx="482" cy="101.96235" r="3"></circle>
            <circle id="Oval" fill="#F2F2F2" cx="399" cy="204.96235" r="3"></circle>
            <circle id="Oval" fill="#F2F2F2" cx="602" cy="222.96235" r="2"></circle>
            <circle id="Oval" fill="#F2F2F2" cx="182" cy="267.96235" r="2"></circle>
            <circle id="Oval" fill="#F2F2F2" cx="614" cy="98.96235" r="2"></circle>
            <circle id="Oval" fill="#F2F2F2" cx="738" cy="194.96235" r="2"></circle>
            <circle id="Oval" fill="#F2F2F2" cx="860" cy="346.96235" r="2"></circle>
            <polygon id="Path" fill="#F2F2F2" points="306 121.222 303.24 121.222 303.24 118.462 301.76 118.462 301.76 121.222 299 121.222 299 122.703 301.76 122.703 301.76 125.462 303.24 125.462 303.24 122.703 306 122.703"></polygon>
            <polygon id="Path" fill="#F2F2F2" points="848 424.222 845.24 424.222 845.24 421.462 843.76 421.462 843.76 424.222 841 424.222 841 425.703 843.76 425.703 843.76 428.462 845.24 428.462 845.24 425.703 848 425.703"></polygon>
            <path d="M1088,613.96236 C1088,630.5309 844.4429,687.96236 544,687.96236 C243.5571,687.96236 0,630.5309 0,613.96236 C0,597.39382 243.5571,627.96236 544,627.96236 C844.4429,627.96236 1088,597.39381 1088,613.96236 Z" id="Path" fill="#3F3D56"></path>
            <path d="M1088,613.96236 C1088,630.5309 844.4429,687.96236 544,687.96236 C243.5571,687.96236 0,630.5309 0,613.96236 C0,597.39382 243.5571,627.96236 544,627.96236 C844.4429,627.96236 1088,597.39381 1088,613.96236 Z" id="Path" fill="#000000" opacity="0.1"></path>
            <ellipse id="Oval" fill="#3F3D56" cx="544" cy="613.96235" rx="544" ry="30"></ellipse>
            <path d="M550,584.64084 C550,599.70315 543.28427,595.54993 535,595.54993 C526.71573,595.54993 520,599.70315 520,584.64084 C520,569.57853 535,541.00447 535,541.00447 C535,541.00447 550,569.57852 550,584.64084 Z" id="Path" fill="#000000" opacity="0.1"></path>
            <rect id="Rectangle" fill="#2F2E41" x="489" y="604.96235" width="92" height="18" rx="8.99999"></rect>
            <rect id="Rectangle" fill="#2F2E41" x="489" y="586.96235" width="92" height="18" rx="8.99999"></rect>
            <path d="M137,490.52799 C137,545.87124 171.71944,590.65428 214.626,590.65428" id="Path" fill="#3F3D56"></path>
            <path d="M214.626,590.65428 C214.626,534.68921 253.37089,489.40298 301.25212,489.40298" id="Path" fill="#6C63FF"></path>
            <path d="M165.12536,495.54495 C165.12536,548.11515 187.2653,590.65428 214.626,590.65428" id="Path" fill="#6C63FF"></path>
            <path d="M214.626,590.65428 C214.626,519.14335 259.40905,461.27761 314.75229,461.27761" id="Path" fill="#3F3D56"></path>
            <path d="M198.29549,591.36018 C198.29549,591.36018 209.30414,591.02112 212.62186,588.65861 C215.93958,586.2961 229.55593,583.47513 230.37898,587.26408 C231.20203,591.05303 246.92293,606.10859 234.49422,606.20884 C222.06551,606.30909 205.61544,604.27284 202.3041,602.25584 C198.99276,600.23884 198.29549,591.36018 198.29549,591.36018 Z" id="Path" fill="#A8A8A8"></path>
            <path d="M234.716,604.8899 C222.28729,604.99018 205.83722,602.9539 202.52587,600.9369 C200.00411,599.40079 198.99921,593.8889 198.66298,591.3459 C198.43013,591.3559 198.29547,591.36023 198.29547,591.36023 C198.29547,591.36023 198.99273,600.23878 202.30408,602.25586 C205.61543,604.27294 222.06549,606.30916 234.4942,606.20886 C238.08187,606.17993 239.32112,604.90349 239.25307,603.01296 C238.75469,604.15518 237.38638,604.86837 234.716,604.8899 Z" id="Path" fill="#000000" opacity="0.2"></path>
            <path d="M721.42886,527.06172 C721.42886,565.09072 745.28629,595.86338 774.76948,595.86338" id="Path" fill="#3F3D56"></path>
            <path d="M774.76948,595.86338 C774.76948,557.40704 801.39298,526.28867 834.29448,526.28867" id="Path" fill="#6C63FF"></path>
            <path d="M740.75517,530.50911 C740.75517,566.63266 755.9686,595.86338 774.76948,595.86338" id="Path" fill="#6C63FF"></path>
            <path d="M774.76948,595.86338 C774.76948,546.72473 805.54209,506.96238 843.57114,506.96238" id="Path" fill="#3F3D56"></path>
            <path d="M763.548,596.34844 C763.548,596.34844 771.11257,596.11544 773.39234,594.49206 C775.67211,592.86868 785.02857,590.93024 785.59413,593.53381 C786.15969,596.13738 796.96228,606.48281 788.42191,606.55168 C779.88154,606.62055 768.57791,605.22138 766.3025,603.83536 C764.02709,602.44934 763.548,596.34844 763.548,596.34844 Z" id="Path" fill="#A8A8A8"></path>
            <path d="M788.57431,605.64537 C780.03394,605.71427 768.73031,604.31508 766.45491,602.92905 C764.72208,601.87351 764.03157,598.08605 763.80053,596.33859 C763.64053,596.34547 763.54799,596.34843 763.54799,596.34843 C763.54799,596.34843 764.02711,602.44932 766.3025,603.83535 C768.57789,605.22138 779.8815,606.62057 788.4219,606.55167 C790.88717,606.53178 791.73872,605.65467 791.69196,604.35561 C791.34948,605.14047 790.40924,605.63057 788.57431,605.64537 Z" id="Path" fill="#000000" opacity="0.2"></path>
            <path d="M893.81294,618.69946 C893.81294,618.69946 905.17248,616.97046 908.31305,614.1083 C911.45362,611.24614 925.20339,606.62019 926.53005,610.4415 C927.85671,614.26281 946.02363,627.88867 933.16342,629.54806 C920.30321,631.20745 903.01054,631.15736 899.32842,629.48266 C895.6463,627.80796 893.81294,618.69946 893.81294,618.69946 Z" id="Path" fill="#A8A8A8"></path>
            <path d="M933.22809,628.15423 C920.36787,629.81365 903.07522,629.76354 899.39309,628.08884 C896.58896,626.81347 894.8583,621.23038 894.19178,618.63862 C893.95186,618.67813 893.81293,618.69945 893.81293,618.69945 C893.81293,618.69945 895.64633,627.80795 899.32844,629.48265 C903.01055,631.15735 920.3032,631.20746 933.16344,629.54805 C936.87567,629.06905 937.99944,627.5919 937.69235,625.64235 C937.31909,626.88774 935.99116,627.79771 933.22809,628.15423 Z" id="Path" fill="#000000" opacity="0.2"></path>
            <path d="M614.25974,617.87727 C614.25974,617.87727 623.84674,616.41807 626.49721,614.00253 C629.14768,611.58699 640.75193,607.68288 641.87159,610.9079 C642.99125,614.13292 658.32334,625.63257 647.46987,627.03303 C636.6164,628.43349 622.02213,628.3912 618.91459,626.97783 C615.80705,625.56446 614.25974,617.87727 614.25974,617.87727 Z" id="Path" fill="#A8A8A8"></path>
            <path d="M647.52443,625.85669 C636.67096,627.25717 622.0767,627.21488 618.96915,625.8015 C616.6026,624.72514 615.14199,620.01326 614.57947,617.82592 C614.37699,617.85927 614.25974,617.87726 614.25974,617.87726 C614.25974,617.87726 615.80705,625.56444 618.9146,626.97782 C622.02215,628.3912 636.6164,628.43349 647.46987,627.03301 C650.60287,626.62876 651.55125,625.38211 651.29208,623.73677 C650.97706,624.78783 649.85634,625.5558 647.52443,625.85669 Z" id="Path" fill="#000000" opacity="0.2"></path>
            <path d="M122.389,613.09028 C122.389,613.09028 129.85241,611.95428 131.91583,610.07381 C133.97925,608.19334 143.01308,605.15399 143.88473,607.66466 C144.75638,610.17533 156.69236,619.12776 148.24297,620.21801 C139.79358,621.30826 128.43197,621.27534 126.01279,620.17501 C123.59361,619.07468 122.389,613.09028 122.389,613.09028 Z" id="Path" fill="#A8A8A8"></path>
            <path d="M148.28545,619.30223 C139.83606,620.3925 128.47445,620.35958 126.05527,619.25923 C124.21291,618.42129 123.07583,614.7531 122.63792,613.05023 C122.48028,613.07623 122.389,613.09023 122.389,613.09023 C122.389,613.09023 123.59358,619.07467 126.01279,620.17498 C128.432,621.27529 139.79358,621.30821 148.24297,620.21798 C150.68197,619.90327 151.42031,618.93276 151.21855,617.65187 C150.97331,618.47018 150.10083,619.068 148.28545,619.30223 Z" id="Path" fill="#000000" opacity="0.2"></path>
            <path d="M383.69605,601.31853 C383.69605,631.5389 341.57244,622.19146 289.99634,622.19146 C238.42024,622.19146 196.92245,631.5389 196.92245,601.31853 C196.92245,571.09816 239.0403,564.52553 290.61645,564.52553 C342.1926,564.52553 383.69605,571.09818 383.69605,601.31853 Z" id="Path" fill="#000000" opacity="0.1"></path>
            <path d="M383.69605,593.87775 C383.69605,624.09813 341.57244,614.75069 289.99634,614.75069 C238.42024,614.75069 196.92245,624.09813 196.92245,593.87775 C196.92245,563.65737 239.0403,557.08475 290.61645,557.08475 C342.1926,557.08475 383.69605,563.65738 383.69605,593.87775 Z" id="Path" fill="#3F3D56"></path>
            <path d="M391.72627,455.42118 C389.241244,456.691071 386.878962,458.18802 384.66959,459.89291 C382.451203,461.611209 380.752756,463.911013 379.76303,466.5367 C378.519881,463.626139 377.504023,460.623668 376.72457,457.55622 C374.972908,452.051134 372.900039,446.653466 370.51663,441.39099 C374.428759,439.900873 377.820269,437.300188 380.2743,433.90859 C385.0733,438.68688 390.00809,443.67045 392.39588,450.00775 C392.80732,451.09975 394.0044,452.26358 394.28221,453.24136 C394.6752,454.62452 392.77489,454.84396 391.72627,455.42118 Z" id="Path" fill="#FFBFC5"></path>
            <path d="M436.89162,571.90748 C442.134152,573.563507 447.023226,576.179501 451.30977,579.62219 C451.632541,579.824365 451.866652,580.141399 451.9649,580.50937 C452.07354,581.33989 450.96509,581.67869 450.16019,581.91045 C447.79352,582.59189 446.28132,584.81535 444.53842,586.5554 C442.79552,588.29545 439.99509,589.6607 437.96186,588.27093 C437.427545,587.862115 436.961425,587.371171 436.58086,586.81638 L427.99096,575.60438 C430.903479,573.976387 433.965733,572.632102 437.13548,571.59007" id="Path" fill="#F1F1F1"></path>
            <path d="M452.33278,574.24 C453.46997,575.40044 453.96389,577.06925 455.07964,578.25032 C455.830509,578.966114 456.687898,579.561065 457.62121,580.01394 L464.19321,583.63117 C465.203124,584.228282 466.266187,584.730545 467.36877,585.13152 C468.607176,585.476993 469.867108,585.740046 471.14029,585.91895 C472.961717,586.260313 474.743693,586.78608 476.4587,587.48813 C477.74723,588.01573 479.18417,588.92626 479.17803,590.31861 C479.125323,590.99887 478.847967,591.642308 478.38958,592.14769 C475.79824,595.41153 471.21172,596.13509 467.06736,596.57331 C458.09586,597.52194 448.91486,598.23288 440.14467,596.11831 C438.432585,595.803123 436.814567,595.102807 435.41295,594.07031 C432.76656,591.87751 432.23958,587.88274 433.22784,584.59106 C433.507499,583.328672 434.25397,582.218635 435.31762,581.48346 C436.70662,580.68717 438.43762,581.05702 440.03388,580.93378 C441.731986,580.702077 443.377154,580.178111 444.89649,579.3851 C445.8992,578.93273 447.05378,578.34988 447.26849,577.15672 C447.46759,576.05024 446.16788,574.9421 446.44142,573.95389 C447.04777,571.76305 451.285,573.17077 452.33278,574.24 Z" id="Path" fill="#575A89"></path>
            <path d="M452.33278,574.24 C453.46997,575.40044 453.96389,577.06925 455.07964,578.25032 C455.830509,578.966114 456.687898,579.561065 457.62121,580.01394 L464.19321,583.63117 C465.203124,584.228282 466.266187,584.730545 467.36877,585.13152 C468.607176,585.476993 469.867108,585.740046 471.14029,585.91895 C472.961717,586.260313 474.743693,586.78608 476.4587,587.48813 C477.74723,588.01573 479.18417,588.92626 479.17803,590.31861 C479.125323,590.99887 478.847967,591.642308 478.38958,592.14769 C475.79824,595.41153 471.21172,596.13509 467.06736,596.57331 C458.09586,597.52194 448.91486,598.23288 440.14467,596.11831 C438.432585,595.803123 436.814567,595.102807 435.41295,594.07031 C432.76656,591.87751 432.23958,587.88274 433.22784,584.59106 C433.507499,583.328672 434.25397,582.218635 435.31762,581.48346 C436.70662,580.68717 438.43762,581.05702 440.03388,580.93378 C441.731986,580.702077 443.377154,580.178111 444.89649,579.3851 C445.8992,578.93273 447.05378,578.34988 447.26849,577.15672 C447.46759,576.05024 446.16788,574.9421 446.44142,573.95389 C447.04777,571.76305 451.285,573.17077 452.33278,574.24 Z" id="Path" fill="#000000" opacity="0.1"></path>
            <path d="M467.581,610.13783 C468.501867,610.74403 469.421927,611.351463 470.34118,611.96013 C471.187839,612.41098 471.884987,613.098489 472.34758,613.93879 C472.94604,615.34579 472.13647,616.93739 471.23611,618.1732 C468.534526,621.867003 464.846807,624.724835 460.59567,626.41911 C459.121593,627.032392 457.563788,627.420869 455.97435,627.57155 C455.610651,627.62776 455.238478,627.580815 454.90013,627.43605 C454.05878,626.99205 454.17946,625.78848 454.16934,624.83723 C454.13998,622.07574 452.05455,619.83346 450.18034,617.80518 C448.30613,615.7769 446.39534,613.27956 446.82456,610.55147 C447.213591,608.945351 448.036561,607.477045 449.20356,606.30697 C450.242271,605.004269 451.460261,603.855257 452.82124,602.89417 C454.7709,601.6184 455.45865,602.30517 457.29354,603.47446 C460.739073,605.67014 464.168227,607.891263 467.581,610.13783 Z" id="Path" fill="#F1F1F1"></path>
            <path d="M458.60879,623.59036 C460.131932,623.975065 461.74723,623.610826 462.95787,622.60967 C464.142787,621.610649 465.104748,620.373972 465.7815,618.97967 C466.452683,617.738563 467.036856,616.452339 467.5298,615.13028 C468.10707,613.58196 468.64235,611.87011 470.00205,610.93111 C471.65056,609.79264 473.9733,610.23832 475.64875,611.33676 C477.228635,612.56926 478.679397,613.958873 479.97875,615.48425 C483.459836,618.730654 487.68028,621.078911 492.27412,622.3254 C496.848423,623.560661 501.485159,624.55188 506.1647,625.29486 C507.099934,625.419866 508.005235,625.711296 508.83776,626.15536 C510.71855,627.30279 511.34603,629.8643 510.82265,632.00436 C510.158762,634.116322 508.967514,636.024214 507.3614,637.54787 C506.097305,639.047265 504.529329,640.26125 502.76114,641.10956 C501.265921,641.655679 499.691509,641.9538 498.10014,641.99214 C490.393559,642.516097 482.651779,641.909893 475.12068,640.19278 C472.354105,639.441218 469.539476,638.87929 466.6964,638.51091 C464.96317,638.3582 463.21797,638.40677 461.48202,638.28877 C458.031085,638.052227 454.656547,637.161982 451.53802,635.66542 C450.778667,635.387133 450.138299,634.85586 449.7246,634.16094 C449.500378,633.521264 449.453934,632.832733 449.59022,632.16874 L450.74155,622.08821 C450.84179,621.2106 451.13376,620.12008 452.00641,619.98321 C452.83681,619.85297 453.44026,620.70312 453.96262,621.36167 C456.046542,623.857951 459.556706,624.625606 462.4924,623.22709" id="Path" fill="#575A89"></path>
            <path d="M391.86626,496.48557 C396.92407,495.91546 402.78995,495.82028 406.21002,499.58983 C408.30741,501.90154 408.94402,505.13957 409.66973,508.17542 C410.804589,513.273101 412.649245,518.186292 415.14973,522.77125 C416.75859,525.61164 418.70873,528.27744 419.94305,531.29946 C421.20797,534.39623 421.67354,537.74882 422.41294,541.01123 C425.378141,553.904229 432.615519,565.415905 442.94939,573.67623 C441.12497,578.6388 435.84777,581.47342 430.71472,582.74123 C428.475169,583.691736 425.876009,582.983491 424.42825,581.02823 C422.026342,578.436124 419.789422,575.695882 417.73067,572.82365 C410.33141,562.94332 402.81957,552.85448 398.78935,541.18713 C397.37518,537.09313 395.96073,532.31399 391.98163,530.60313 C389.71224,529.62738 387.11725,529.93187 384.68174,530.34477 C379.239002,531.267773 373.882714,532.643055 368.66856,534.45632 C363.10935,536.38988 356.74417,538.76988 351.65611,535.81098 C348.61146,534.0404 346.79934,530.63998 346.1308,527.18198 C345.62763,523.690937 345.622916,520.146118 346.1168,516.65375 C346.150575,515.073492 346.529751,513.519767 347.22772,512.1016 C347.931827,511.041067 348.834893,510.127124 349.88692,509.41037 C354.4305,505.95895 359.484051,503.236458 364.86578,501.34083 C370.00678,499.52865 375.53234,498.91423 380.89554,498.01872 C384.537967,497.410533 388.194873,496.899483 391.86626,496.48557 Z" id="Path" fill="#575A89"></path>
            <path d="M391.86626,496.48557 C396.92407,495.91546 402.78995,495.82028 406.21002,499.58983 C408.30741,501.90154 408.94402,505.13957 409.66973,508.17542 C410.804589,513.273101 412.649245,518.186292 415.14973,522.77125 C416.75859,525.61164 418.70873,528.27744 419.94305,531.29946 C421.20797,534.39623 421.67354,537.74882 422.41294,541.01123 C425.378141,553.904229 432.615519,565.415905 442.94939,573.67623 C441.12497,578.6388 435.84777,581.47342 430.71472,582.74123 C428.475169,583.691736 425.876009,582.983491 424.42825,581.02823 C422.026342,578.436124 419.789422,575.695882 417.73067,572.82365 C410.33141,562.94332 402.81957,552.85448 398.78935,541.18713 C397.37518,537.09313 395.96073,532.31399 391.98163,530.60313 C389.71224,529.62738 387.11725,529.93187 384.68174,530.34477 C379.239002,531.267773 373.882714,532.643055 368.66856,534.45632 C363.10935,536.38988 356.74417,538.76988 351.65611,535.81098 C348.61146,534.0404 346.79934,530.63998 346.1308,527.18198 C345.62763,523.690937 345.622916,520.146118 346.1168,516.65375 C346.150575,515.073492 346.529751,513.519767 347.22772,512.1016 C347.931827,511.041067 348.834893,510.127124 349.88692,509.41037 C354.4305,505.95895 359.484051,503.236458 364.86578,501.34083 C370.00678,499.52865 375.53234,498.91423 380.89554,498.01872 C384.537967,497.410533 388.194873,496.899483 391.86626,496.48557 Z" id="Path" fill="#000000" opacity="0.1"></path>
            <path d="M420.8202,532.95818 C423.166459,534.142154 425.321082,535.672642 427.21162,537.49818 C429.162708,539.797271 430.644761,542.456138 431.57414,545.32473 C431.990247,546.281948 432.245459,547.301299 432.32948,548.34166 C432.406007,549.397112 431.993412,550.429213 431.21039,551.14105 C430.27364,551.742711 429.162724,552.014147 428.05407,551.91225 C426.587403,551.924057 425.121487,551.88585 423.65632,551.79763 C422.765645,551.790998 421.883465,551.623802 421.05213,551.30407 C420.290724,550.915255 419.603793,550.395304 419.02285,549.76807 C416.445167,547.37406 414.333696,544.522875 412.79549,541.35907 C411.73375,539.01792 409.98578,533.622 411.65705,531.18566 C413.379,528.67555 418.99992,531.92518 420.8202,532.95818 Z" id="Path" fill="#FFBFC5"></path>
            <path d="M349.90728,532.12272 C357.38764,534.51883 365.34999,534.79272 373.1707,535.52326 C386.325251,536.753253 399.320023,539.321918 411.95323,543.18937 C414.590832,543.832019 417.07563,544.989018 419.26513,546.59402 C420.955725,548.156797 422.387484,549.978074 423.50694,551.98984 C425.561958,555.121224 427.423046,558.375664 429.07973,561.73484 C430.50049,564.77084 431.58348,567.95271 432.90496,571.03317 C437.345996,581.345375 444.368334,590.339846 453.29522,597.14977 C454.92646,598.39054 456.74302,599.74117 457.16265,601.74725 C457.350624,603.038635 457.139819,604.35663 456.55843,605.52496 C454.62993,610.01632 450.6266,613.28349 446.42683,615.78417 C444.6206,616.85966 442.63373,617.95069 441.74553,619.85601 C435.36133,617.22025 430.61604,611.60123 426.66559,605.93562 C422.71514,600.27001 419.21111,594.18197 414.14852,589.48353 C411.9183,587.41373 409.38434,585.61134 407.63032,583.12511 C404.95322,579.33049 404.22913,574.13899 400.62507,571.21038 C396.99523,568.26082 391.78807,568.66238 387.13319,569.11871 C363.291014,571.453294 339.265876,571.193326 315.4798,568.34337 C310.5348,567.75037 305.45425,566.99521 301.17064,564.45437 C296.88703,561.91353 293.55164,557.14661 294.15893,552.20332 C294.72742,547.57613 298.58128,543.90754 302.87698,542.09616 C307.17268,540.28478 311.9208,539.95989 316.55352,539.43839 C327.921921,538.3293 339.118303,535.873534 349.90728,532.12272 L349.90728,532.12272 Z" id="Path" fill="#575A89"></path>
            <path d="M281.51128,541.73056 C282.09846,537.80719 283.62209,534.09122 284.57828,530.2411 C285.05776,527.818505 285.664426,525.422827 286.39576,523.06401 C286.41996,522.99754 286.44727,522.93258 286.47215,522.86645 C286.964147,522.82576 287.412819,522.569141 287.69734,522.1657 C287.827535,521.821997 287.863325,521.449701 287.80099,521.08749 C287.781929,520.703402 287.793331,520.318407 287.83509,519.93612 C289.399489,517.312681 291.109018,514.778554 292.95571,512.34555 C296.19471,507.75646 299.0004,502.87915 301.80086,498.00997 C304.0967,494.01823 306.3964,490.01886 308.29699,485.82452 C309.7222,482.67927 310.92051,479.42952 312.49615,476.35679 C318.10429,465.41986 328.18452,457.36495 339.0267,451.57574 C349.42653,446.02274 360.67005,442.27934 371.60493,437.86436 C371.885924,438.140636 372.141283,438.441826 372.36787,438.76423 C378.27587,446.83969 378.91287,457.45286 381.34417,467.15884 C382.32579,471.07767 383.63817,474.98322 383.635654,479.02314 C383.63198,484.98634 380.78212,490.53428 377.9495,495.78176 C375.417675,500.796907 372.428387,505.567679 369.01967,510.03338 C367.34641,512.1041 365.50387,514.03293 363.82134,516.09606 C356.92848,524.54795 352.94834,534.94029 349.07906,545.13706 C346.83872,551.04106 343.17753,556.27746 340.71483,562.09218 C339.76848,564.32667 339.22224,566.73584 338.03357,568.85141 C336.8449,570.96698 334.7764,572.82816 332.34978,572.83895 C331.639601,572.819445 330.934846,572.70905 330.25272,572.51046 C321.46872,570.25061 314.11199,564.43897 306.81211,559.0559 C305.50934,558.09518 304.19861,557.14305 302.83157,556.27628 C301.45134,555.40114 300.01699,554.61509 298.58375,553.82973 C297.49775,553.234583 296.411717,552.63945 295.32565,552.04433 C291.76629,550.0939 288.20203,548.14099 284.49365,546.49147 C283.378801,546.043636 282.307707,545.49377 281.29402,544.84888 C281.28306,543.805306 281.355712,542.762531 281.51128,541.73056 L281.51128,541.73056 Z" id="Path" fill="#6C63FF"></path>
            <circle id="Oval" fill="#FFBFC5" cx="396.35929" cy="434.51122" r="20.23957"></circle>
            <path d="M409.97383,425.04131 C410.976527,426.79361 412.969206,427.730379 414.95826,427.38452 C416.910903,426.992308 418.603241,425.785166 419.60979,424.06659 C420.594021,422.357818 421.182974,420.450272 421.33339,418.48406 C421.65126,416.959284 421.347622,415.370701 420.48982,414.07064 C419.735248,413.339456 418.86881,412.733392 417.9232,412.27532 C416.619243,411.460841 415.524273,410.352155 414.72609,409.03816 C414.15926,408.10279 413.75332,407.08003 413.24378,406.11225 C411.40265,402.61531 407.8213,399.77207 403.87139,399.90105 C401.97428,399.96305 400.16595,400.68433 398.29639,401.01216 C392.02147,402.11243 385.20123,398.79256 379.38039,401.38169 C377.947855,402.078551 376.616399,402.966392 375.42239,404.02096 C373.783937,405.3726 372.208813,406.79645 370.69702,408.29251 C369.384153,409.411362 368.390557,410.857542 367.81702,412.48435 C367.02629,415.45375 368.90662,418.77175 367.71017,421.60214 C367.300679,422.412429 366.811886,423.180138 366.25096,423.89401 C364.9302,425.83073 366.36528,433.39171 366.21903,435.73134 C366.050808,436.876818 366.34199,438.042369 367.02916,438.97415 C367.98372,440.03815 369.58979,440.1313 371.01916,440.14848 L373.64688,440.18008 C374.03948,440.207167 374.433815,440.166548 374.81265,440.06 C375.328336,439.830351 375.781704,439.480839 376.13501,439.04056 C378.32028,436.73801 378.79383,429.20776 381.96817,429.23522 C382.450295,429.208484 382.928793,429.332438 383.3373,429.58989 C383.91262,430.01151 384.08193,430.78613 384.4894,431.37155 C385.446314,432.501213 387.030084,432.871005 388.38831,432.2819 C389.69961,431.676036 390.840228,430.754491 391.70807,429.59975 C392.572535,428.447397 393.621261,427.445619 394.81197,426.6348 C396.50334,425.64823 398.41531,425.21844 400.06137,424.1036 C401.4373,423.17171 402.22037,421.81973 403.45509,420.79053 C404.469977,419.915064 405.946971,419.832243 407.05337,420.58876 C409.00049,421.60524 409.08623,423.27118 409.97383,425.04131 Z" id="Path" fill="#2F2E41"></path>
            <path d="M363.21005,460.70125 C367.937026,460.029769 372.754137,460.41666 377.31335,461.83397 C378.835017,462.181304 380.209549,462.996839 381.24367,464.1659 C381.831713,465.051403 382.214452,466.057118 382.36391,467.10953 C383.293614,471.949683 382.697297,476.959103 380.65734,481.44575 C380.362267,481.899089 380.276232,482.457368 380.42113,482.97851 C380.626669,483.290484 380.894894,483.556261 381.20874,483.75893 C381.783447,484.311436 382.093967,485.083649 382.061743,485.880212 C382.029519,486.676774 381.657638,487.421382 381.04018,487.92566 C380.66278,488.20116 380.16745,488.44081 380.09363,488.90221 C380.01316,489.40513 380.48573,489.79941 380.85351,490.15175 C381.948938,491.22401 382.42208,492.780778 382.10857,494.28125 C381.910187,494.87562 381.774073,495.488987 381.70242,496.11148 C381.778498,496.872888 382.002855,497.612046 382.36284,498.28728 C382.977934,499.810939 383.187975,501.467918 382.97251,503.09686 C382.776851,503.866856 382.75784,504.671129 382.9169,505.44951 C383.138751,505.964459 383.440371,506.441228 383.81066,506.86227 C385.26547,508.82471 385.58466,512.10666 383.47437,513.33721 C385.325764,514.287087 386.370217,516.30732 386.0748,518.36709 C387.3348,517.69395 388.86259,518.55445 389.91218,519.52346 C390.96177,520.49247 392.03442,521.6774 393.46118,521.74868 C394.45581,521.79837 395.50389,521.28233 396.41159,521.69201 C397.79173,522.3149 397.74459,524.55282 399.10202,525.22367 C400.29272,525.8121 401.95057,524.85182 402.96526,525.70882 C403.31847,526.00714 403.49826,526.4686 403.83926,526.78082 C404.60943,527.48597 405.81199,527.18607 406.85538,527.14455 C409.372746,527.215688 411.664163,528.614699 412.87766,530.82142 C414.042928,533.005459 414.745814,535.406121 414.9425,537.87375 C415.209367,539.214672 415.182847,540.597467 414.86476,541.92717 C414.51548,543.279901 413.391361,544.292801 412.00968,544.49977 C399.58852,545.30377 387.33197,542.32552 375.23815,539.380838 C371.68586,538.5159 368.07268,537.5035 365.11015,535.36098 C362.41843,533.41431 360.43915,530.66109 358.50865,527.95773 C354.94933,522.97343 351.36743,517.95051 348.82012,512.38065 C345.54164,505.21202 344.07999,497.36965 342.64651,489.61834 C342.153111,487.540139 341.977681,485.399139 342.1262,483.26834 C342.555946,480.776137 343.508746,478.403237 344.92186,476.30589 C346.630947,473.525118 348.5213,470.859911 350.58065,468.32757 C353.710582,464.32024 358.206298,461.605481 363.21005,460.70125 Z" id="Path" fill="#000000" opacity="0.1"></path>
            <path d="M364.029,459.88231 C368.755979,459.21083 373.573094,459.59772 378.13231,461.01503 C379.653974,461.362362 381.028504,462.177898 382.06262,463.34696 C382.650664,464.232462 383.033404,465.238177 383.18286,466.29059 C384.112567,471.130742 383.516254,476.140162 381.4763,480.62681 C381.181225,481.080148 381.095186,481.638427 381.24008,482.15957 C381.445618,482.471542 381.713844,482.737315 382.02769,482.93998 C382.602398,483.492484 382.91292,484.264697 382.880698,485.061259 C382.848476,485.857822 382.476596,486.602431 381.85914,487.10671 C381.48173,487.38222 380.9864,487.62187 380.91258,488.08327 C380.83211,488.58619 381.30468,488.98046 381.67246,489.3328 C382.767893,490.405061 383.241035,491.961834 382.92752,493.46231 C382.729135,494.056679 382.593021,494.670047 382.52137,495.29254 C382.597453,496.053947 382.821809,496.793105 383.18179,497.46834 C383.796884,498.991999 384.006925,500.648978 383.79146,502.27792 C383.595806,503.047914 383.576796,503.852182 383.73585,504.63056 C383.957702,505.145514 384.259326,505.622286 384.62962,506.04333 C386.08442,508.00577 386.40362,511.28772 384.29333,512.51827 C386.144721,513.468144 387.189171,515.488374 386.89375,517.54814 C388.15375,516.87501 389.68154,517.73551 390.73113,518.70451 C391.78072,519.67351 392.85338,520.85851 394.28013,520.92973 C395.27476,520.97943 396.32284,520.46339 397.23055,520.87306 C398.61068,521.49596 398.56355,523.73388 399.92097,524.40473 C401.11167,524.99316 402.76952,524.03288 403.78421,524.88987 C404.13742,525.18819 404.31721,525.64966 404.65821,525.96187 C405.42838,526.66702 406.63094,526.36712 407.67433,526.3256 C410.191696,526.396736 412.483114,527.795748 413.69661,530.00247 C414.861885,532.186507 415.564774,534.58717 415.76146,537.0548 C416.028323,538.395722 416.0018,539.778518 415.68371,541.10822 C415.334428,542.46095 414.21031,543.473848 412.82863,543.68082 C400.40747,544.48482 388.15092,541.50657 376.0571,538.561898 C372.50481,537.69695 368.89163,536.68455 365.9291,534.54203 C363.23738,532.59536 361.2581,529.84213 359.32761,527.13878 C355.76828,522.15448 352.18638,517.13155 349.63907,511.56169 C346.36059,504.39307 344.89894,496.55069 343.46546,488.79939 C342.972065,486.721189 342.796637,484.580188 342.94516,482.44939 C343.374902,479.957188 344.327699,477.584287 345.74081,475.48694 C347.449897,472.706168 349.34025,470.040961 351.3996,467.50862 C354.529536,463.501297 359.025252,460.786543 364.029,459.88231 L364.029,459.88231 Z" id="Path" fill="#6C63FF"></path>
        </g>
        <g id="Group" transform="translate(476.000000, 410.000000)">
            <rect id="Rectangle" fill="#F4136B" transform="translate(33.000000, 58.097980) rotate(45.000000) translate(-33.000000, -58.097980) " x="20" y="24.5979797" width="26" height="67" rx="12"></rect>
            <ellipse id="Oval" fill="#FEA621" transform="translate(72.597980, 18.500000) rotate(45.000000) translate(-72.597980, -18.500000) " cx="72.5979797" cy="18.5" rx="13" ry="12.5"></ellipse>
            <rect id="Rectangle" fill="#00A0C6" transform="translate(84.618795, 60.219300) rotate(225.000000) translate(-84.618795, -60.219300) " x="71.618795" y="26.7193001" width="26" height="67" rx="12"></rect>
            <ellipse id="Oval" fill="#80C41C" transform="translate(45.020815, 99.817280) rotate(225.000000) translate(-45.020815, -99.817280) " cx="45.0208153" cy="99.8172798" rx="13" ry="12.5"></ellipse>
        </g>
    </g>
</svg>