<?xml version="1.0" encoding="UTF-8"?>
<svg width="1957px" height="1303px" viewBox="0 0 1957 1303" version="1.1" xmlns="http://www.w3.org/2000/svg" xmlns:xlink="http://www.w3.org/1999/xlink">
    <!-- Generator: Sketch 63.1 (92452) - https://sketch.com -->
    <title>Untitled 2</title>
    <desc>Created with Sketch.</desc>
    <g id="Page-1" stroke="none" stroke-width="1" fill="none" fill-rule="evenodd">
        <g id="undraw_hire_te5y" fill-rule="nonzero">
            <ellipse id="Oval" fill="#3F3D56" cx="1244.5" cy="1232.5" rx="712.5" ry="70.5"></ellipse>
            <rect id="Rectangle" fill="#3F3D56" opacity="0.3" transform="translate(1283.500000, 287.500000) rotate(-180.000000) translate(-1283.500000, -287.500000) " x="897" y="0" width="773" height="575"></rect>
            <rect id="Rectangle" fill="#F2F2F2" x="1391" y="53" width="229" height="274"></rect>
            <rect id="Rectangle" fill="#F2F2F2" transform="translate(1139.500000, 60.500000) rotate(-180.000000) translate(-1139.500000, -60.500000) " x="1029" y="52" width="221" height="17"></rect>
            <rect id="Rectangle" fill="#F2F2F2" transform="translate(1431.000000, 376.500000) rotate(-180.000000) translate(-1431.000000, -376.500000) " x="1392" y="368" width="78" height="17"></rect>
            <rect id="Rectangle" fill="#F2F2F2" transform="translate(1506.000000, 406.500000) rotate(-180.000000) translate(-1506.000000, -406.500000) " x="1394" y="398" width="224" height="17"></rect>
            <rect id="Rectangle" fill="#F2F2F2" transform="translate(1143.000000, 121.500000) rotate(-180.000000) translate(-1143.000000, -121.500000) " x="984" y="113" width="318" height="17"></rect>
            <rect id="Rectangle" fill="#F2F2F2" transform="translate(1143.000000, 167.500000) rotate(-180.000000) translate(-1143.000000, -167.500000) " x="984" y="159" width="318" height="17"></rect>
            <rect id="Rectangle" fill="#F2F2F2" transform="translate(1143.000000, 214.500000) rotate(-180.000000) translate(-1143.000000, -214.500000) " x="984" y="206" width="318" height="17"></rect>
            <rect id="Rectangle" fill="#F2F2F2" transform="translate(1143.000000, 260.500000) rotate(-180.000000) translate(-1143.000000, -260.500000) " x="984" y="252" width="318" height="17"></rect>
            <rect id="Rectangle" fill="#F2F2F2" transform="translate(1143.000000, 307.500000) rotate(-180.000000) translate(-1143.000000, -307.500000) " x="984" y="299" width="318" height="17"></rect>
            <rect id="Rectangle" fill="#F2F2F2" transform="translate(1143.000000, 354.500000) rotate(-180.000000) translate(-1143.000000, -354.500000) " x="984" y="346" width="318" height="17"></rect>
            <rect id="Rectangle" fill="#F2F2F2" transform="translate(1143.000000, 400.500000) rotate(-180.000000) translate(-1143.000000, -400.500000) " x="984" y="392" width="318" height="17"></rect>
            <path d="M1425.71669,208.456616 C1429.1096,205.793468 1432.85421,203.722513 1436.81883,202.316583 C1461.95523,192.002145 1488.29318,185.679325 1515.04281,183.537744 C1538.30247,181.718779 1563.51182,183.879233 1581.67884,200.000422 C1584.5046,202.287048 1586.81701,205.258116 1588.43816,208.685011 C1590.7237,214.124167 1590.03106,220.446624 1589.29115,226.385626 C1589.12529,228.689296 1588.59868,230.943842 1587.73469,233.049188 C1585.29003,238.182409 1579.27114,239.980623 1574.04329,239.365093 C1568.81543,238.749563 1563.90986,236.310194 1558.75327,235.179184 C1555.56162,234.565694 1552.33444,234.203249 1549.09617,234.094589 L1516.75522,232.163723 C1496.64445,230.963019 1476.26869,229.782318 1456.54169,234.258386 C1450.46888,235.462182 1444.60087,237.692166 1439.14477,240.869628 C1434.63905,243.659425 1431.605,247.662586 1427.42421,242.509707 C1420.07916,233.456893 1416.01352,216.818322 1425.71669,208.456616 Z" id="Path" fill="#2F2E41"></path>
            <path d="M1475.93276,224.70215 C1475.93276,224.70215 1519.10783,203.062633 1535.4845,228.031306 C1551.86118,253 1526.55174,243.012531 1526.55174,243.012531 L1498.26466,253 L1467,246.341687 L1475.93276,224.70215 Z" id="Path" fill="#F2F2F2"></path>
            <path d="M1478,208.8 C1478,208.8 1483.94595,240.044444 1479.48649,248.266667 C1475.02703,256.488889 1504.75676,268 1504.75676,268 L1533,254.844444 C1533,254.844444 1525.56757,203.866667 1533,194 L1478,208.8 Z" id="Path" fill="#FFB9B9"></path>
            <path d="M1478,208.8 C1478,208.8 1483.94595,240.044444 1479.48649,248.266667 C1475.02703,256.488889 1504.75676,268 1504.75676,268 L1533,254.844444 C1533,254.844444 1525.56757,203.866667 1533,194 L1478,208.8 Z" id="Path" fill="#000000" opacity="0.1"></path>
            <path d="M1547,177.500635 C1546.97967,204.829074 1526.84441,226.977571 1502.00004,227 C1499.31864,227.004973 1496.64246,226.73988 1494.00502,226.207974 C1470.57225,221.553144 1454.4928,197.623275 1457.32264,171.616257 C1460.15247,145.60924 1480.91182,126.52946 1504.68137,128.089152 C1528.45093,129.648843 1547.00098,151.307996 1547,177.500635 L1547,177.500635 Z" id="Path" fill="#FFB9B9"></path>
            <path d="M1574,328 L1431,328 L1434.24221,312.535207 L1448.27816,245.3411 L1464.50293,233.302953 L1464.51664,233.287917 L1472.13663,227.621983 L1475.9261,224.811601 C1475.9261,224.811601 1478.16952,225.938753 1480.75512,227.471742 C1481.50742,227.937482 1482.27365,228.41856 1483.03977,228.929489 C1483.05348,228.914634 1483.05348,228.929489 1483.05348,228.929489 C1484.29367,229.720905 1485.47396,230.620546 1486.58293,231.619723 C1486.78816,231.830149 1486.96602,232.010483 1487.14393,232.205913 C1489.98937,235.331855 1498.29322,251.9238 1512.02827,243.432448 C1512.72186,243.013756 1513.39326,242.552165 1514.03924,242.049901 C1517.61941,239.327945 1521.03312,236.350813 1524.25837,233.137696 C1527.14505,230.237036 1529.01924,227.997747 1530.55143,226.449722 C1531.23832,225.697178 1532.02182,225.059191 1532.877,224.556066 C1533.52234,224.184095 1534.24138,223.993139 1534.97013,224 C1539.4573,224 1545.43556,233.844015 1545.43556,233.844015 L1545.61342,234.415109 L1545.6271,234.460238 L1564.49227,296.679715 L1574,328 Z" id="Path" fill="#F2F2F2"></path>
            <path d="M1430.65801,328 L1473.98042,328 C1474.07695,322.511618 1473.81646,317.022854 1473.20095,311.575232 C1471.87447,300.62051 1468.61983,290.070404 1466.56857,279.25054 C1464.76342,269.768916 1463.88781,260.10308 1463.95665,250.417588 C1463.97033,249.083831 1463.99768,247.735101 1464.10708,246.386372 C1464.21458,243.298079 1465.02805,240.288815 1466.47285,237.634652 C1467.49848,235.911272 1468.907,234.442657 1470.001,232.794203 C1470.38133,232.254536 1470.7155,231.677633 1470.99928,231.070803 L1470.99928,231.055829 C1471.13624,230.758078 1471.25947,230.452978 1471.36851,230.141683 C1471.6096,229.425044 1471.74799,228.671819 1471.77875,227.908773 C1472.0249,222.963411 1467.93608,218.197888 1463.51906,216.15979 C1457.31944,213.608736 1450.53569,213.309274 1444.16892,215.305597 C1437.8584,217.304521 1431.76112,220.037521 1425.98117,223.457948 C1424.02564,224.506973 1422.0838,225.585965 1420.21031,226.784882 C1417.97329,228.174943 1415.91725,229.88875 1414.09759,231.880116 C1409.4481,237.140176 1407.41052,244.4683 1405.76951,251.556652 C1404.2046,256.974951 1403.66939,262.687178 1404.19688,268.340917 C1404.21056,268.520756 1404.25168,268.715568 1404.27894,268.895406 C1405.90627,278.231641 1412.85316,285.245068 1416.55908,293.846995 C1420.85304,303.827639 1420.56587,315.456736 1418.85648,326.336533 C1418.77445,326.891022 1418.67871,327.445511 1418.583,328 L1430.65801,328 L1430.65801,328 Z" id="Path" fill="#2F2E41"></path>
            <path d="M1607.43149,267.719374 C1601.97048,287.419612 1598.0059,307.582035 1595.57837,328 L1533.55102,328 C1531.9304,323.148667 1530.31429,318.29225 1528.70271,313.430747 C1527.41627,309.762361 1526.31127,306.020484 1525.39254,302.221443 C1524.41048,297.804234 1523.94433,293.267997 1524.00529,288.72182 C1524.00529,287.637076 1524.04653,286.537279 1524.12902,285.452535 C1524.14278,285.435241 1524.14278,285.409454 1524.12902,285.39216 C1524.50566,279.658553 1525.71582,274.027919 1527.71366,268.713575 C1528.63075,266.29773 1529.68588,263.947768 1530.87277,261.677695 C1533.75725,255.952382 1537.24581,250.558691 1540.34994,244.954029 C1542.28427,241.528945 1543.96974,237.942104 1545.39072,234.226761 C1545.38885,234.210175 1545.3939,234.19355 1545.40448,234.181519 C1547.25752,229.443704 1548.22433,224.345931 1548.24755,219.190545 C1548.15147,212.546219 1537.90523,200.960072 1549.04411,202.074963 C1564.24882,203.581609 1577.31079,213.179074 1589.21889,224.117273 C1592.39176,227.040063 1595.49587,230.06843 1598.53125,233.051555 C1603.22867,237.692104 1608.18698,242.754213 1609.60162,249.519008 C1609.82851,250.597636 1609.9619,251.697386 1610,252.803567 C1609.9184,257.898997 1609.04993,262.942384 1607.43149,267.719374 L1607.43149,267.719374 Z" id="Path" fill="#2F2E41"></path>
            <path d="M1515.00272,249.77979 C1513.44054,245.181891 1511.0455,240.973496 1507.96015,237.4051 C1504.84829,234.538149 1501.16425,232.504147 1497.20238,231.465624 C1492.06895,229.867442 1486.75979,229.038199 1481.4211,229.000731 C1475.0657,228.957583 1467.69653,230.81541 1464.99767,237.086112 C1462.8545,242.065643 1464.51597,247.962152 1466.67379,252.934146 C1467.5957,255.50969 1469.13145,257.770555 1471.12261,259.483507 C1473.86332,261.501528 1477.40795,261.437566 1480.65693,262.113492 C1485.69459,263.507388 1490.46562,265.863475 1494.74856,269.072396 L1505.88006,276.405073 L1525,289 C1524.49617,288.668095 1524.67526,274.379194 1524.08803,272.037406 C1522.1963,264.49365 1517.9376,256.923601 1515.00272,249.77979 Z" id="Path" fill="#FFB9B9"></path>
            <path d="M1545.89938,152.053454 C1545.10313,149.11749 1543.3489,146.606031 1540.97165,144.998596 C1541.09435,141.853497 1540.74282,138.707756 1539.93122,135.688264 C1537.22051,126.898443 1530.79894,127.402267 1524.73999,123.516133 C1522.11125,121.83007 1522.27371,120.339866 1520.90515,117.570544 C1519.11198,113.940233 1516.42618,110.934552 1513.15308,108.895189 C1509.26589,106.178709 1505.16259,103.381115 1500.56407,103.037316 C1490.90024,102.314843 1483.49086,112.284602 1474.2543,115.484359 C1470.18306,116.89465 1465.80841,116.952774 1461.71566,118.286054 C1457.6229,119.619334 1453.53975,122.802864 1452.92971,127.437641 C1452.64813,129.577388 1453.14496,131.772478 1452.85931,133.911624 C1452.29151,138.163347 1448.89071,141.140933 1446.61412,144.63797 C1441.57976,152.371103 1442.15558,163.295869 1446.18155,171.709818 C1447.02993,173.450822 1448.00054,175.116777 1449.08458,176.692596 C1449.42042,180.669547 1450.46165,184.536171 1452.14971,188.075048 C1456.17565,196.488996 1463.10343,202.776384 1470.3403,208 C1469.7476,205.209558 1469.3883,202.36561 1469.26689,199.503538 C1469.16475,198.54973 1469.27787,197.583007 1469.59628,196.688397 C1470.40223,194.840509 1472.53182,194.34907 1474.15554,193.33704 C1477.51865,191.24083 1478.83748,186.601851 1478.93473,182.360413 C1479.03198,178.118974 1478.21249,173.870553 1478.61764,169.651264 C1478.64956,167.689063 1479.43694,165.833291 1480.78504,164.542914 C1482.02623,163.766277 1483.44415,163.395486 1484.8713,163.474341 C1491.76198,163.165996 1498.96163,163.02716 1505.03963,159.453052 C1506.9998,158.025062 1509.10686,156.855963 1511.31704,155.970041 C1516.48237,154.492642 1521.7616,158.463591 1524.73849,163.32362 C1527.71538,168.183649 1529.19958,173.967112 1531.94615,178.987646 C1534.69273,184.00818 1539.43769,188.485354 1544.74815,187.890533 C1545.35307,187.89202 1545.9299,187.61068 1546.33408,187.11702 C1546.56316,186.665667 1546.66484,186.149854 1546.62622,185.635019 L1546.92292,163.370159 C1547.16951,159.561551 1546.82339,155.734689 1545.89938,152.053454 L1545.89938,152.053454 Z" id="Path" fill="#2F2E41"></path>
            <path d="M1427.2174,301.365854 C1428.19843,310.213619 1428.79263,319.091668 1429,328 L1391,328 L1391,293.047339 C1391.19347,292.200281 1391.40068,291.368496 1391.6494,290.53663 C1394.02618,282.52059 1399.01461,275.8054 1403.33955,268.83305 C1403.54702,268.485039 1403.76799,268.137209 1403.97529,267.78938 C1405.81468,264.848078 1407.39695,261.723751 1408.70118,258.457761 C1409.32293,256.854476 1410.31781,249.095615 1411.368,248.43024 C1415.87274,245.571682 1419.53461,257.792163 1420.15636,260.514656 C1422.36722,270.209499 1424.28814,279.994972 1425.73896,289.871296 C1426.30552,293.697805 1426.79833,297.529324 1427.2174,301.365854 Z" id="Path" fill="#2F2E41"></path>
            <path d="M1618,328 L1531.53347,328 C1530.79381,326.085926 1530.06784,324.171852 1529.30075,322.272856 C1523.90856,308.852992 1516.93667,296.271263 1508.56422,284.850974 C1507.18319,283.3411 1506.28444,281.37909 1506.00286,279.259416 C1505.97366,278.37931 1506.16822,277.507697 1506.56464,276.742622 C1507.87946,274.044804 1511.35844,272.462257 1514.17987,271.181423 C1517.09602,269.889258 1519.77744,268.031015 1522.09629,265.695275 C1524.14732,263.664497 1525.71757,261.114211 1526.6711,258.265238 C1526.92541,257.429731 1527.11775,256.572915 1527.24623,255.703207 C1527.6435,256.27573 1528.05447,256.863714 1528.45172,257.436258 C1529.42412,258.853041 1530.41024,260.254684 1531.41009,261.656288 C1540.99771,275.205331 1551.53048,288.558453 1564.77517,296.591372 C1568.23531,298.713011 1571.88982,300.425686 1575.67763,301.700777 C1576.41081,302.055085 1577.24537,302.055085 1577.97855,301.700777 C1578.53751,301.195948 1578.89607,300.471649 1578.97838,299.681113 C1580.15644,294.25548 1580.56724,288.663923 1581.43013,283.163119 C1583.01555,273.154337 1586.06375,263.494184 1590.45631,254.557899 C1592.9079,249.539086 1600.87921,231.19745 1605.93339,242.756985 C1607.38513,246.087654 1608.84613,249.428463 1610.3164,252.779411 C1611.23397,254.904505 1612.16525,257.014339 1613.09668,259.139614 C1616.53387,265.881339 1618.10046,273.583545 1617.60284,281.2943 C1617.73984,296.877852 1617.87222,312.446418 1618,328 Z" id="Path" fill="#2F2E41"></path>
            <path d="M1431.36929,328 L1439,328 L1434.67546,312.433909 L1428.43979,290 C1428.51207,293.798034 1428.31152,297.596406 1427.83995,301.360674 C1426.89849,309.140473 1424.84654,316.714067 1421.75771,323.809718 C1421.15786,325.186312 1420.51614,326.578021 1420,328 L1431.36929,328 Z" id="Path" fill="#000000" opacity="0.1"></path>
            <path d="M1583.95273,280 C1582.88621,283.143316 1583.8547,286.619574 1584.67676,289.849932 C1587.05856,299.219931 1588.17056,308.922773 1587.97709,318.647267 C1588.04734,318.992795 1587.95371,319.353842 1587.72813,319.607219 C1587.50256,319.860596 1587.17552,319.972063 1586.85861,319.903588 C1583.36675,320.138016 1579.36908,320.162807 1577,317.341649 L1583.95273,280 Z" id="Path" fill="#000000" opacity="0.1"></path>
            <rect id="Rectangle" fill="#3F3D56" opacity="0.3" x="0" y="6" width="773" height="575"></rect>
            <rect id="Rectangle" fill="#F2F2F2" x="49" y="58" width="229" height="274"></rect>
            <rect id="Rectangle" fill="#F2F2F2" x="419" y="58" width="221" height="17"></rect>
            <rect id="Rectangle" fill="#F2F2F2" x="52" y="374" width="78" height="17"></rect>
            <rect id="Rectangle" fill="#F2F2F2" x="52" y="404" width="224" height="17"></rect>
            <rect id="Rectangle" fill="#F2F2F2" x="368" y="119" width="318" height="17"></rect>
            <rect id="Rectangle" fill="#F2F2F2" x="368" y="165" width="318" height="17"></rect>
            <rect id="Rectangle" fill="#F2F2F2" x="368" y="212" width="318" height="17"></rect>
            <rect id="Rectangle" fill="#F2F2F2" x="368" y="258" width="318" height="17"></rect>
            <rect id="Rectangle" fill="#F2F2F2" x="368" y="305" width="318" height="17"></rect>
            <rect id="Rectangle" fill="#F2F2F2" x="368" y="352" width="318" height="17"></rect>
            <rect id="Rectangle" fill="#F2F2F2" x="368" y="398" width="318" height="17"></rect>
            <path d="M272,334 L242.059563,334 C239.756472,327.249291 237.710792,320.413356 235.922523,313.492195 C234.742833,305.354503 231.340059,297.793613 226.158419,291.796567 C224.576348,289.87377 223.167764,287.789375 221.952163,285.572233 C219.385333,280.112708 218.458984,273.911183 219.3043,267.845875 C219.476569,266.157675 219.734398,264.481161 220.076606,262.824024 C221.386768,256.40422 223.579508,250.239875 225.413745,243.985275 C226.204744,241.393819 228.281549,239.520613 230.764681,239.158915 C232.738541,238.798562 234.765634,239.053948 236.612079,239.895608 C237.020458,240.0769 237.412843,240.298362 237.784374,240.557249 C241.052842,242.707339 242.74912,247.097452 244.114417,251.111868 C250.361791,269.394512 256.604559,287.677103 262.842722,305.95964 C264.056336,309.507877 265.269956,313.066156 266.483583,316.634477 C268.276408,321.866639 270.055417,327.098801 271.57249,332.4363 C271.724174,332.962701 271.862041,333.473639 272,334 Z" id="Path" fill="#D0CDE1"></path>
            <path d="M148.10634,92.4471124 C140.67969,95.1943889 133.951414,101.620081 132.430633,110.043251 C131.725662,113.947777 132.157881,118.006729 131.564631,121.93348 C130.188762,131.04044 123.6625,137.995496 117.64311,144.455733 C111.623719,150.91597 105.407608,158.422616 104.968295,167.640819 C104.487226,177.735042 111.170493,187.191696 110.014005,197.21999 C108.670409,208.870782 97.4361725,216.420307 94.6589805,227.762853 C92.8046154,235.336797 95.076957,243.495405 98.8155518,250.18274 C105.939861,262.926101 118.117452,271.577556 131.085676,276.215455 C144.0539,280.853354 157.865354,281.829063 171.506516,281.985621 C188.116223,282.176262 206.150006,280.614298 218.629718,268.606564 C225.758243,261.686236 230.235022,252.069978 231.162451,241.68587 C232.348013,227.776744 227.048168,213.404886 230.703877,200.02146 C233.004576,191.598652 238.774187,183.906318 237.913148,175.165341 C237.071259,166.618849 230.256771,160.56093 225.581768,153.656543 C221.216934,147.210116 218.568243,139.597219 215.972407,132.091801 L207.090605,106.411599 C205.344672,101.36331 203.427288,96.0538615 199.536245,92.7404813 C192.251825,86.5376595 180.53878,87.7563696 172.021015,89.0356942 C164.11914,90.2225773 155.705451,89.6360407 148.10634,92.4471124 Z" id="Path" fill="#2F2E41"></path>
            <path d="M155.064669,177.638233 C155.064669,177.638233 155.926086,206.224934 153.341726,209.083563 C150.757367,211.942193 163.679474,231 163.679474,231 L186.939346,230.047177 L199,219.5654 L188.662289,204.319167 C188.662289,204.319167 184.354914,179.54406 187.800872,173.826821 C191.246831,168.109582 155.064669,177.638233 155.064669,177.638233 Z" id="Path" fill="#A0616A"></path>
            <path d="M155.064669,177.638233 C155.064669,177.638233 155.926086,206.224934 153.341726,209.083563 C150.757367,211.942193 163.679474,231 163.679474,231 L186.939346,230.047177 L199,219.5654 L188.662289,204.319167 C188.662289,204.319167 184.354914,179.54406 187.800872,173.826821 C191.246831,168.109582 155.064669,177.638233 155.064669,177.638233 Z" id="Path" fill="#000000" opacity="0.1"></path>
            <ellipse id="Oval" fill="#A0616A" cx="169" cy="154" rx="31" ry="34"></ellipse>
            <path d="M185.261836,334 L210.609948,334 C211.558441,332.124372 212.451941,330.173805 213.482914,328.403221 L213.482914,328.388209 C214.609952,326.247016 216.19455,324.434996 218.101658,323.10658 C219.314192,322.500498 220.46202,321.750771 221.524465,320.870907 C222.541231,319.667243 223.260321,318.200689 223.6139,316.609587 C225.359813,310.656318 226.322491,304.462615 226.473113,298.213917 C226.514354,296.113271 226.473113,293.982601 226.5831,291.881955 C226.637303,290.240491 226.83057,288.608027 227.160429,287.005447 C228.030445,283.747063 229.292348,280.628951 230.91316,277.732592 C234.349715,270.905491 237.795444,264.078389 241.250348,257.251288 C241.87311,255.328036 242.112132,253.281718 241.951398,251.249428 C241.87711,248.507927 241.106113,245.842934 239.724508,243.552063 C239.243431,242.606773 238.721021,241.661463 238.171106,240.746197 C236.05065,237.053322 233.58114,233.613438 230.803118,230.483017 C224.908974,223.735625 217.755202,218.449692 209.826344,214.983244 C208.831687,214.617768 207.884502,214.113429 207.008353,213.482774 C205.974442,212.529137 205.100034,211.386834 204.424069,210.106736 C201.674825,205.590354 198.320726,200.503779 193.358344,200.788926 C191.726813,199.89519 189.834685,199.754621 188.10726,200.398816 C187.846223,200.472985 187.589223,200.563153 187.337482,200.66889 C185.440961,201.585429 183.59984,202.632871 181.825294,203.804858 C177.259936,206.391685 172.086304,207.416556 166.979331,206.74577 C166.380357,206.699879 165.793754,206.537258 165.247307,206.265609 C164.667605,205.864361 164.132505,205.391057 163.652739,204.855191 C161.098861,202.572312 157.617649,201.964782 154.538993,203.264689 C153.119044,203.816854 151.864224,204.781861 150.909983,206.055543 C150.00273,207.300931 149.370389,208.801381 148.366885,209.971749 C145.768849,213.002693 141.480011,213.122728 137.686039,213.107716 C129.80631,212.867443 121.928579,213.658319 114.221197,215.463445 C107.45213,217.102908 101.126409,220.442285 95.7462426,225.21646 L95.7324897,225.231472 C94.9901989,225.921679 94.3028831,226.626899 93.6155673,227.377134 C92.0520881,228.984533 90.8075663,230.925172 89.95907,233.078876 C88.9142883,236.019789 89.0518175,239.335819 88.1033247,242.321727 C87.0585429,245.667761 84.7354919,248.398647 83.800752,251.759652 C83.0859487,254.310435 83.1821641,257.131293 82,259.441985 C82.054975,259.487001 82.0962154,259.532017 82.1512087,259.577033 C87.1547767,264.378521 91.429917,270.680459 96.447293,275.436932 C99.3592578,277.858537 101.822416,280.862924 103.705313,284.289753 C104.067647,285.059564 104.36666,285.862966 104.59883,286.690497 C105.163274,289.558857 105.412462,292.490434 105.341121,295.423183 C105.973444,309.452511 112.942872,322.176442 120.736925,333.339796 C120.888134,333.564875 121.039343,333.789933 121.204286,334 L185.261836,334 Z" id="Path" fill="#D0CDE1"></path>
            <path d="M103.800018,283.992688 C102.625757,293.003915 101.442444,302.010176 100.250079,311.01147 C99.707843,315.832119 98.8962113,320.611038 97.8198396,325.320813 C97.1098299,328.23389 96.1950844,331.086923 95.5533199,334 L60,334 C60.0181123,332.368401 60.1321312,330.739829 60.3413357,329.124582 C61.2567981,323.322083 62.744799,317.647998 64.7786821,312.203973 C68.9156971,299.856763 73.0481222,287.499559 77.1759576,275.132362 C78.9372033,269.864464 80.452715,264.35502 82.3915407,259.132285 C82.7328764,258.166408 83.1014592,257.200349 83.4974714,256.264513 C85.5590547,251.25312 91.2798205,253.306111 95.5124311,254.060768 C96.67439,254.22032 97.8072092,254.576662 98.8710938,255.117275 C100.157685,255.900878 101.243003,257.033159 102.025112,258.407771 C106.039217,264.973924 105.165361,273.653131 104.127693,281.502073 C104.018438,282.332358 103.909213,283.162563 103.800018,283.992688 Z" id="Path" fill="#D0CDE1"></path>
            <path d="M213.369418,328.016072 C213.424664,328.240481 214.018853,330.630846 215,334 L185,334 C199.868716,331.032026 213.369418,328 213.369418,328 L213.369418,328.016072 Z" id="Path" fill="#2F2E41"></path>
            <ellipse id="Oval" fill="#2F2E41" cx="172" cy="134" rx="34" ry="20"></ellipse>
            <rect id="Rectangle" fill="#3F3D56" x="496" y="217" width="773" height="575"></rect>
            <ellipse id="Oval" fill="#000000" opacity="0.1" cx="1156.5" cy="742.5" rx="90.5" ry="10.5"></ellipse>
            <rect id="Rectangle" fill="#F2F2F2" x="545" y="270" width="229" height="274"></rect>
            <path d="M618.14404,395.839705 C619.675699,396.352544 621.323002,395.602788 622.079327,394.048591 C625.24276,388.558208 619.418476,381.478675 620.679612,375.125925 C621.68997,370.036446 626.94016,367.015675 628.013615,361.941895 C629.056664,357.01188 625.842667,351.454894 628.015005,346.994058 C629.716906,343.49923 633.968099,342.579552 637.525243,343.191791 C641.082387,343.80403 644.458783,345.526546 648.052351,345.767907 C652.84094,346.089493 657.405606,343.767454 662.088014,342.616934 C666.770422,341.466413 672.48183,341.916872 675.236403,346.243596 C678.773313,351.799171 675.18549,359.535137 676.417026,366.183698 C677.394948,371.46311 681.407217,375.834511 681.49342,381.221978 C681.524063,383.136805 676.954329,381.594247 677.197223,383.490574 C677.440116,385.386901 675.280273,383.717204 677.006779,383.491924 C678.453477,383.101587 679.50441,381.724647 679.605027,380.08768 C679.810308,378.508223 682.504912,377.981792 682.473812,376.386496 C682.400964,372.647949 688.536982,375.168688 689.547486,371.598794 C691.87141,363.276671 691.39459,354.310713 688.204428,346.344417 C686.560435,343.090071 685.24777,339.645666 684.290308,336.073848 C683.388893,331.116849 684.807232,325.79544 683.320509,321.012595 C681.316935,314.567005 674.687062,311.281174 668.531889,310.6139 C662.376716,309.946626 656.121785,311.141077 650.001737,310.157013 C644.519209,309.275442 639.21152,306.658054 633.681592,307.037296 C627.046249,307.492329 621.27211,312.20178 616.672538,317.489535 C612.072966,322.777289 608.171176,328.859095 602.947421,333.389012 C601.348136,334.601262 599.872594,336.000531 598.546544,337.562399 C595.885912,341.133965 595.616053,346.221872 596.356204,350.769503 C597.096355,355.317133 598.706857,359.655082 599.386874,364.214098 C600.025931,368.498422 599.828773,372.875688 600.104011,377.206966 C600.168402,381.575497 601.369033,385.832005 603.563463,389.471498 C605.484829,392.344562 608.501813,394.080809 611.740138,394.177101 C612.847346,394.205313 613.782477,393.109304 614.899985,393.395081 C616.296883,393.752336 616.904235,395.21354 618.14404,395.839705 Z" id="Path" fill="#2F2E41"></path>
            <path d="M568,545 C569.001009,529.949778 569.755127,518.703574 569.755127,518.703574 L576.226943,500 L597,545 L568,545 Z" id="Path" fill="#575A89"></path>
            <path d="M568,545 C569.001009,529.949778 569.755127,518.703574 569.755127,518.703574 L576.226943,500 L597,545 L568,545 Z" id="Path" fill="#000000" opacity="0.1"></path>
            <path d="M617,397.188655 C617,397.188655 636.250002,451.376804 625.166669,461.698378 C614.083336,472.019952 687,444.280753 687,444.280753 L685.249998,437.184702 C685.249998,437.184702 661.333331,426.863128 673,397.188655 C684.666676,367.514182 617,397.188655 617,397.188655 Z" id="Path" fill="#A0616A"></path>
            <path d="M617,397.188655 C617,397.188655 636.250002,451.376804 625.166669,461.698378 C614.083336,472.019952 687,444.280753 687,444.280753 L685.249998,437.184702 C685.249998,437.184702 661.333331,426.863128 673,397.188655 C684.666676,367.514182 617,397.188655 617,397.188655 Z" id="Path" fill="#000000" opacity="0.1"></path>
            <ellipse id="Oval" fill="#A0616A" cx="644" cy="374" rx="41" ry="45"></ellipse>
            <path d="M744,471.768274 C744,471.768274 743.835276,475.359879 743.546959,481.637624 C742.956664,494.419648 741.899668,518.368717 740.842597,546 L581.378811,546 C577.211957,539.865179 573.80078,533.152009 571.233845,526.034786 C570.539503,523.971514 570.136725,521.803511 570.03952,519.60618 C569.160908,502.478047 583.122208,478.574232 592.978857,476.295521 C604.139689,473.699849 625.294497,449.162154 625.294497,449.162154 C625.43211,451.060999 626.448571,452.748517 627.985125,453.629109 L627.985125,453.644227 C629.691204,454.613131 631.599283,455.071148 633.517479,454.972219 C640.408936,454.972219 670.72013,439.594665 680.453332,434.569401 C682.361545,433.588566 683.47348,433 683.47348,433 C694.698448,438.325477 706.294709,442.650355 718.150209,445.932844 C730.166226,449.227487 739.87585,458.931717 744,471.768274 L744,471.768274 Z" id="Path" fill="#575A89"></path>
            <path d="M611.144053,391.839713 C612.67571,392.352538 614.323003,391.602774 615.079321,390.048579 C618.242754,384.558215 612.41847,377.478661 613.679625,371.125931 C614.689982,366.036432 619.940154,363.015681 621.013608,357.9419 C622.056658,353.011884 618.842679,347.454777 621.014999,342.994062 C622.716917,339.499214 626.96811,338.579555 630.525254,339.191794 C634.082398,339.804033 637.458794,341.52655 641.052362,341.76789 C645.840931,342.089497 650.405597,339.767437 655.088005,338.616937 C659.770413,337.466437 665.48182,337.916875 668.236393,342.2436 C671.773322,347.799175 668.18548,355.535121 669.417034,362.183704 C670.394956,367.463116 681.537008,371.168674 682.547494,367.598779 C684.871412,359.276661 684.394585,350.310707 681.204418,342.34442 C679.560438,339.090067 678.247774,335.645664 677.290297,332.073851 C676.388882,327.116851 677.807221,321.795442 676.320498,317.012576 C674.316925,310.567006 667.687052,307.281155 661.53188,306.61388 C655.376707,305.946606 649.121776,307.141078 643.001729,306.156993 C637.519202,305.275442 632.211513,302.658054 626.681585,303.037296 C620.046242,303.492329 614.272104,308.20176 609.672532,313.489536 C605.072961,318.777311 601.171171,324.859077 595.947417,329.389014 C594.348142,330.601263 592.872606,332.000525 591.546558,333.562381 C588.885926,337.133948 588.616049,342.221855 589.3562,346.769507 C590.096351,351.317158 591.706871,355.655066 592.38687,360.214083 C593.025927,364.498509 592.828787,368.875694 593.104007,373.206952 C593.168393,377.575485 594.369025,381.831994 596.563459,385.471486 C598.484817,388.344562 601.501804,390.080819 604.740133,390.177109 C605.847322,390.205321 606.782472,389.109312 607.899961,389.395088 C609.296877,389.752344 609.904248,391.213548 611.144053,391.839713 Z" id="Path" fill="#2F2E41"></path>
            <path d="M764,545 L717.465456,545 C713.923858,516.537242 711,486.78082 711,486.78082 L720.403048,482.267725 L739.510991,471 C739.510991,471 740.911165,474.640537 743.16233,480.838542 C747.966802,494.092057 756.683478,519.034545 764,545 Z" id="Path" fill="#000000" opacity="0.1"></path>
            <path d="M768,545 L715.462037,545 C707.67611,513.892394 700,480.079791 700,480.079791 L719.993519,464 L743.502385,471.07815 C743.502385,471.07815 757.261711,506.91945 768,545 Z" id="Path" fill="#575A89"></path>
            <rect id="Rectangle" fill="#6C63FF" x="915" y="270" width="221" height="17"></rect>
            <rect id="Rectangle" fill="#6C63FF" x="548" y="586" width="78" height="17"></rect>
            <rect id="Rectangle" fill="#6C63FF" x="547" y="616" width="224" height="17"></rect>
            <rect id="Rectangle" fill="#F2F2F2" x="863" y="330" width="318" height="17"></rect>
            <rect id="Rectangle" fill="#F2F2F2" x="863" y="377" width="318" height="17"></rect>
            <rect id="Rectangle" fill="#F2F2F2" x="863" y="423" width="318" height="17"></rect>
            <rect id="Rectangle" fill="#F2F2F2" x="863" y="470" width="318" height="17"></rect>
            <rect id="Rectangle" fill="#F2F2F2" x="863" y="517" width="318" height="17"></rect>
            <rect id="Rectangle" fill="#F2F2F2" x="863" y="563" width="318" height="17"></rect>
            <rect id="Rectangle" fill="#F2F2F2" x="863" y="610" width="318" height="17"></rect>
            <path d="M1882,1160.88877 C1882,1268.39567 1745.32702,1235.1428 1577.98476,1235.1428 C1410.6425,1235.1428 1276,1268.39567 1276,1160.88877 C1276,1053.38187 1412.65428,1030 1579.99654,1030 C1747.3388,1030 1882,1053.38185 1882,1160.88877 Z" id="Path" fill="#000000" opacity="0.1"></path>
            <path d="M1882,1140.88877 C1882,1248.39567 1745.32702,1215.1428 1577.98476,1215.1428 C1410.6425,1215.1428 1276,1248.39567 1276,1140.88877 C1276,1033.38187 1412.65428,1010 1579.99654,1010 C1747.3388,1010 1882,1033.38185 1882,1140.88877 Z" id="Path" fill="#3F3D56"></path>
            <path d="M1310.74258,804 L1304.53296,811.792194 C1304.53296,811.792194 1229.02643,819.45387 1232.09081,832.699946 C1235.1552,845.946021 1323,815.038439 1323,815.038439 L1310.74258,804 Z" id="Path" fill="#FFC1C7"></path>
            <path d="M1447.48973,797 C1447.48973,797 1366.87753,828.5 1323,815 L1343.40815,860 C1343.40815,860 1447.48973,856.624989 1465.85713,836.375005 C1484.22453,816.125021 1447.48973,797 1447.48973,797 Z" id="Path" fill="#6C63FF"></path>
            <path d="M1447.48973,797 C1447.48973,797 1366.87753,828.5 1323,815 L1343.40815,860 C1343.40815,860 1447.48973,856.624989 1465.85713,836.375005 C1484.22453,816.125021 1447.48973,797 1447.48973,797 Z" id="Path" fill="#000000" opacity="0.1"></path>
            <ellipse id="Oval" fill="#FFC1C7" cx="1393" cy="498" rx="54" ry="59"></ellipse>
            <path d="M1439.10654,553.995946 C1440.9581,557.878157 1443.30442,561.450389 1446.07458,564.604688 C1453.44163,573.408195 1462.23231,580.633353 1472,585.913079 C1441.47327,592.727361 1410.63975,597.763369 1379.62867,601 C1382.90316,588.335659 1378.593,574.789952 1372.80086,563.26399 C1367.00871,551.738028 1359.62511,540.995288 1356,528.446667 L1392.35311,529.519971 C1398.94899,529.714694 1405.56632,529.931764 1412.16102,529.577069 C1417.08998,529.31198 1425.30151,526.06866 1429.90217,527.263235 C1439.62857,529.788648 1434.8606,544.520593 1439.10654,553.995946 Z" id="Path" fill="#FFC1C7"></path>
            <path d="M1560.82541,831.750843 L1591.35232,871.952823 C1591.35232,871.952823 1642.23052,1002.60925 1531.31612,1016.00992 C1420.40173,1029.41059 1337.97907,1005.95943 1337.97907,1005.95943 C1337.97907,1005.95943 1293.20618,982.508273 1292.18871,1000.3758 C1291.17123,1018.24333 1287.10089,1068.49584 1262.67935,1117.63158 L1241.31051,1171.23423 C1241.31051,1171.23423 1230.1173,1183.51817 1233.17,1200.269 C1236.22271,1217.01982 1164.99323,1222.60343 1166.0108,1200.269 C1166.0108,1200.269 1176.18644,1181.28472 1176.18644,1170.11751 C1176.18644,1158.95029 1192.46746,1132.14898 1192.46746,1132.14898 L1221.9768,971.341037 C1221.9768,971.341037 1219.94167,888.703646 1289.136,904.337744 C1358.33034,919.971842 1457.03404,900.987588 1457.03404,900.987588 L1479.42043,815 L1560.82541,831.750843 Z" id="Path" fill="#2F2E41"></path>
            <path d="M1560.82541,831.750843 L1591.35232,871.952823 C1591.35232,871.952823 1642.23052,1002.60925 1531.31612,1016.00992 C1420.40173,1029.41059 1337.97907,1005.95943 1337.97907,1005.95943 C1337.97907,1005.95943 1293.20618,982.508273 1292.18871,1000.3758 C1291.17123,1018.24333 1287.10089,1068.49584 1262.67935,1117.63158 L1241.31051,1171.23423 C1241.31051,1171.23423 1230.1173,1183.51817 1233.17,1200.269 C1236.22271,1217.01982 1164.99323,1222.60343 1166.0108,1200.269 C1166.0108,1200.269 1176.18644,1181.28472 1176.18644,1170.11751 C1176.18644,1158.95029 1192.46746,1132.14898 1192.46746,1132.14898 L1221.9768,971.341037 C1221.9768,971.341037 1219.94167,888.703646 1289.136,904.337744 C1358.33034,919.971842 1457.03404,900.987588 1457.03404,900.987588 L1479.42043,815 L1560.82541,831.750843 Z" id="Path" fill="#000000" opacity="0.1"></path>
            <path d="M1446.46856,828.031181 C1446.46856,828.031181 1539.61301,789.628569 1591.52959,871.202806 C1591.52959,871.202806 1604.76324,997.475248 1551.82869,1003.06252 C1498.89413,1008.6498 1429.67196,1007.53234 1413.38446,988.535595 C1397.09696,969.53885 1294.2817,915.901011 1294.2817,915.901011 C1294.2817,915.901011 1243.10204,887.244481 1233.06285,924.480568 C1223.02367,961.716656 1222.00562,970.656309 1222.00562,970.656309 C1222.00562,970.656309 1169.07106,1013.1196 1147.69365,1020.94181 C1147.69365,1020.94181 1133.44204,1043.29091 1125.29825,1043.29091 C1117.15446,1043.29091 1067.27385,1055.58292 1072.3637,1014.23707 L1154.81946,931.545379 L1237.2752,843.266408 C1237.2752,843.266408 1260.68857,805.272937 1320.74899,825.387122 C1360.60876,838.409032 1401.03928,849.224732 1441.88769,857.793336 L1446.46856,828.031181 Z" id="Path" fill="#2F2E41"></path>
            <path d="M1230.40586,1198.27433 C1230.40586,1198.27433 1249.78017,1251.65138 1233.46497,1258.32352 C1217.14977,1264.99565 1182.4799,1260.54757 1182.4799,1260.54757 C1182.4799,1260.54757 1141.69187,1254.98746 1131.49486,1256.09946 C1121.29785,1257.21147 1079.4901,1248.31532 1085.60831,1230.52297 C1091.72652,1212.73062 1123.33726,1217.17871 1123.33726,1217.17871 L1151.88888,1202.72243 C1151.88888,1202.72243 1154.94799,1191.60222 1162.08588,1196.0502 C1169.22378,1200.49818 1189.61782,1217.17871 1230.40586,1198.27433 Z" id="Path" fill="#CBCEDA"></path>
            <path d="M1124.45522,1039.61622 C1124.45522,1039.61622 1145.88529,1092.2054 1111.189,1087.72971 C1076.49271,1083.25402 1049.96022,1075.42162 1039.75543,1074.30269 C1029.93932,1073.22634 1002.18289,1062.83229 1006.44067,1042.12454 C1006.66977,1040.78516 1006.76258,1039.42204 1006.71743,1038.06021 C1006.71743,1035.28039 1010.16148,1029.82562 1037.71448,1030.66486 C1037.71448,1030.66486 1058.12407,1030.66486 1066.2879,1015 C1066.2879,1015 1096.90229,1057.51892 1124.45522,1039.61622 Z" id="Path" fill="#CBCEDA"></path>
            <path d="M1356,592.370376 C1356,592.370376 1429.24138,542.03703 1490.27585,592.370376 C1551.31033,642.703721 1592,872 1592,872 L1450.60339,837.325928 C1450.60339,837.325928 1444.49985,810.481471 1436.36202,806.007402 C1428.22419,801.533333 1427.20683,782.518513 1427.20683,782.518513 C1427.20683,782.518513 1383.46547,767.977763 1386.51718,712.051765 C1389.5689,656.125768 1356,592.370376 1356,592.370376 Z" id="Path" fill="#6C63FF"></path>
            <path d="M1393.71814,595 L1355.91591,595 C1355.91591,595 1333.4389,622.893506 1330.37377,693.1848 L1318.11367,748.971592 C1318.11367,748.971592 1292.57154,815.915766 1307.89686,827.073128 C1323.22218,838.23049 1352.85085,837.11477 1358.98095,814.800025 C1365.11104,792.485281 1407,663.059894 1407,663.059894 L1393.71814,595 Z" id="Path" fill="#6C63FF"></path>
            <path d="M1382.05749,420.485926 C1401.12493,411.897195 1422.97033,415.831347 1438.54265,430.658377 C1458.11733,449.846628 1462.06673,481.148942 1467.01514,509.449941 C1471.96355,537.750941 1481.91836,569.267442 1506.20149,580.177931 C1495.25598,581.783996 1484.14574,581.428907 1473.30376,579.126503 L1510,615.248607 L1448.18329,593.116493 C1428.78228,586.170395 1408.40661,579.137071 1388.31598,583.059893 C1355.03333,589.558554 1331.86221,623.926258 1299.89479,636 L1303.44715,616.959405 L1282,616.778836 C1287.13796,612.60315 1291.34068,607.194676 1294.28812,600.965277 C1292.2456,598.240622 1289.28621,596.539815 1286.08382,596.250125 C1277.14362,534.996565 1310.25794,474.446843 1353.41254,434.428268 C1361.90082,426.556797 1371.29346,418.996341 1382.25664,417.027371 C1393.21982,415.058401 1406.01797,420.443028 1409.83034,431.904063" id="Path" fill="#2F2E41"></path>
            <path d="M448,981 C448,1109.78711 521.351551,1214 612,1214" id="Path" fill="#3F3D56"></path>
            <path d="M612,1214 C612,1084.10742 694.296868,979 796,979" id="Path" fill="#6C63FF"></path>
            <path d="M507,993 C507,1115.1543 553.962884,1214 612,1214" id="Path" fill="#6C63FF"></path>
            <path d="M612,1214 C612,1047.62695 706.820249,913 824,913" id="Path" fill="#3F3D56"></path>
            <path d="M578,1215.72692 C578,1215.72692 601.380849,1214.94451 608.427243,1209.49276 C615.473637,1204.04101 644.392873,1197.53131 646.140916,1206.27473 C647.88896,1215.01814 681.277978,1249.76046 654.881115,1249.99179 C628.484252,1250.22313 593.546556,1245.52435 586.513713,1240.86975 C579.480869,1236.21516 578,1215.72692 578,1215.72692 Z" id="Path" fill="#A8A8A8"></path>
            <path d="M655.357589,1246.88643 C628.958884,1247.12253 594.018768,1242.32867 586.985434,1237.57989 C581.629183,1233.96346 579.494763,1220.98685 578.780608,1215 C578.286014,1215.02357 578,1215.03373 578,1215.03373 C578,1215.03373 579.480991,1235.93632 586.514344,1240.6851 C593.547697,1245.43388 628.487794,1250.22772 654.886499,1249.99162 C662.506754,1249.9235 665.138927,1246.9184 664.994396,1242.46758 C663.935761,1245.15659 661.029436,1246.83575 655.357589,1246.88643 Z" id="Path" fill="#000000" opacity="0.2"></path>
        </g>
        <g id="Group" transform="translate(1114.000000, 652.000000)">
            <rect id="Rectangle" fill="#F4136B" transform="translate(33.000000, 58.097980) rotate(45.000000) translate(-33.000000, -58.097980) " x="20" y="24.5979797" width="26" height="67" rx="12"></rect>
            <ellipse id="Oval" fill="#FEA621" transform="translate(72.597980, 18.500000) rotate(45.000000) translate(-72.597980, -18.500000) " cx="72.5979797" cy="18.5" rx="13" ry="12.5"></ellipse>
            <rect id="Rectangle" fill="#00A0C6" transform="translate(84.618795, 60.219300) rotate(225.000000) translate(-84.618795, -60.219300) " x="71.618795" y="26.7193001" width="26" height="67" rx="12"></rect>
            <ellipse id="Oval" fill="#80C41C" transform="translate(45.020815, 99.817280) rotate(225.000000) translate(-45.020815, -99.817280) " cx="45.0208153" cy="99.8172798" rx="13" ry="12.5"></ellipse>
        </g>
    </g>
</svg>